<?xml version="1.0" encoding="us-ascii" standalone="no"?><svg xmlns="http://www.w3.org/2000/svg" xmlns:xlink="http://www.w3.org/1999/xlink" contentStyleType="text/css" height="1880px" preserveAspectRatio="none" style="width:1888px;height:1880px;background:#FFFFFF;" version="1.1" viewBox="0 0 1888 1880" width="1888px" zoomAndPan="magnify"><defs/><g><!--class AppConfig--><g id="elem_AppConfig"><rect codeLine="12" fill="#E6EFFA" height="336.9219" id="AppConfig" rx="2.5" ry="2.5" style="stroke:#5F93CF;stroke-width:0.5;" width="324" x="1331.95" y="1536.18"/><ellipse cx="1452.7" cy="1556.4905" fill="#ADD1B2" rx="11" ry="11" style="stroke:#181818;stroke-width:1.0;"/><path d="M1455.1731,1562.6336 Q1454.5921,1562.9324 1453.9529,1563.0819 Q1453.3138,1563.2313 1452.6082,1563.2313 Q1450.1014,1563.2313 1448.7815,1561.5794 Q1447.4617,1559.9276 1447.4617,1556.8065 Q1447.4617,1553.6771 1448.7815,1552.0252 Q1450.1014,1550.3734 1452.6082,1550.3734 Q1453.3138,1550.3734 1453.9612,1550.5228 Q1454.6087,1550.6722 1455.1731,1550.971 L1455.1731,1553.6937 Q1454.5423,1553.1126 1453.9488,1552.8428 Q1453.3553,1552.5731 1452.7244,1552.5731 Q1451.3797,1552.5731 1450.6949,1553.6397 Q1450.0101,1554.7064 1450.0101,1556.8065 Q1450.0101,1558.8983 1450.6949,1559.9649 Q1451.3797,1561.0316 1452.7244,1561.0316 Q1453.3553,1561.0316 1453.9488,1560.7618 Q1454.5423,1560.492 1455.1731,1559.911 Z " fill="#000000"/><text fill="#000000" font-family="sans-serif" font-size="12" font-style="italic" lengthAdjust="spacing" textLength="42" x="1489.2" y="1552.7816">&#171;static&#187;</text><text fill="#000000" font-family="sans-serif" font-size="14" lengthAdjust="spacing" textLength="74" x="1473.2" y="1568.848">AppConfig</text><line style="stroke:#5F93CF;stroke-width:0.5;" x1="1332.95" x2="1654.95" y1="1576.8011" y2="1576.8011"/><text fill="#000000" font-family="sans-serif" font-size="14" lengthAdjust="spacing" textLength="201" x="1337.95" y="1594.3362">+MARKER_PCT: number = 70</text><text fill="#000000" font-family="sans-serif" font-size="14" lengthAdjust="spacing" textLength="198" x="1337.95" y="1610.8245">+START3_PCT: number = 25</text><text fill="#000000" font-family="sans-serif" font-size="14" lengthAdjust="spacing" textLength="256" x="1337.95" y="1627.3128">+SCHED_INTERVAL_MS: number = 25</text><text fill="#000000" font-family="sans-serif" font-size="14" lengthAdjust="spacing" textLength="242" x="1337.95" y="1643.8011">+LOOKAHEAD_SEC: number = 0.15</text><text fill="#000000" font-family="sans-serif" font-size="14" lengthAdjust="spacing" textLength="241" x="1337.95" y="1660.2894">+MIN_SAFETY_SEC: number = 0.01</text><text fill="#000000" font-family="sans-serif" font-size="14" lengthAdjust="spacing" textLength="255" x="1337.95" y="1676.7777">+NOISE_DURATION_SEC: number = 3</text><text fill="#000000" font-family="sans-serif" font-size="14" lengthAdjust="spacing" textLength="219" x="1337.95" y="1693.2659">+BEEP_FREQ_HZ: number = 440</text><text fill="#000000" font-family="sans-serif" font-size="14" lengthAdjust="spacing" textLength="222" x="1337.95" y="1709.7542">+APNEA_MIN_SEC: number = 10</text><text fill="#000000" font-family="sans-serif" font-size="14" lengthAdjust="spacing" textLength="227" x="1337.95" y="1726.2425">+APNEA_MAX_SEC: number = 30</text><text fill="#000000" font-family="sans-serif" font-size="14" lengthAdjust="spacing" textLength="192" x="1337.95" y="1742.7308">+EXP_MIN_SEC: number = 0</text><text fill="#000000" font-family="sans-serif" font-size="14" lengthAdjust="spacing" textLength="215" x="1337.95" y="1759.2191">+EXP_MAX_SEC: number = 600</text><text fill="#000000" font-family="sans-serif" font-size="14" lengthAdjust="spacing" textLength="228" x="1337.95" y="1775.7073">+NUDGE_MIN_SEC: number = 0.1</text><text fill="#000000" font-family="sans-serif" font-size="14" lengthAdjust="spacing" textLength="233" x="1337.95" y="1792.1956">+NUDGE_MAX_SEC: number = 0.4</text><text fill="#000000" font-family="sans-serif" font-size="14" lengthAdjust="spacing" textLength="271" x="1337.95" y="1808.6839">+APNEA_DEFAULT_SEC: number = 30.0</text><text fill="#000000" font-family="sans-serif" font-size="14" lengthAdjust="spacing" textLength="241" x="1337.95" y="1825.1722">+EXP_DEFAULT_SEC: number = 4.5</text><text fill="#000000" font-family="sans-serif" font-size="14" lengthAdjust="spacing" textLength="264" x="1337.95" y="1841.6605">+NUDGE_DEFAULT_SEC: number = 0.2</text><text fill="#000000" font-family="sans-serif" font-size="14" lengthAdjust="spacing" textLength="312" x="1337.95" y="1858.1487">+AUDIO_START_OFFSET_SEC: number = 0.02</text><line style="stroke:#5F93CF;stroke-width:0.5;" x1="1332.95" x2="1654.95" y1="1865.1019" y2="1865.1019"/></g><!--class Helpers--><g id="elem_Helpers"><rect codeLine="32" fill="#E6EFFA" height="106.0859" id="Helpers" rx="2.5" ry="2.5" style="stroke:#5F93CF;stroke-width:0.5;" width="270" x="584.95" y="1651.6"/><ellipse cx="689.7" cy="1671.9105" fill="#ADD1B2" rx="11" ry="11" style="stroke:#181818;stroke-width:1.0;"/><path d="M692.1731,1678.0536 Q691.5921,1678.3524 690.9529,1678.5019 Q690.3138,1678.6513 689.6082,1678.6513 Q687.1014,1678.6513 685.7815,1676.9994 Q684.4617,1675.3476 684.4617,1672.2265 Q684.4617,1669.0971 685.7815,1667.4452 Q687.1014,1665.7934 689.6082,1665.7934 Q690.3138,1665.7934 690.9612,1665.9428 Q691.6087,1666.0922 692.1731,1666.391 L692.1731,1669.1137 Q691.5423,1668.5326 690.9488,1668.2628 Q690.3553,1667.9931 689.7244,1667.9931 Q688.3797,1667.9931 687.6949,1669.0597 Q687.0101,1670.1264 687.0101,1672.2265 Q687.0101,1674.3183 687.6949,1675.3849 Q688.3797,1676.4516 689.7244,1676.4516 Q690.3553,1676.4516 690.9488,1676.1818 Q691.5423,1675.912 692.1731,1675.331 Z " fill="#000000"/><text fill="#000000" font-family="sans-serif" font-size="12" font-style="italic" lengthAdjust="spacing" textLength="42" x="715.2" y="1668.2016">&#171;static&#187;</text><text fill="#000000" font-family="sans-serif" font-size="14" lengthAdjust="spacing" textLength="52" x="710.2" y="1684.268">Helpers</text><line style="stroke:#5F93CF;stroke-width:0.5;" x1="585.95" x2="853.95" y1="1692.2211" y2="1692.2211"/><line style="stroke:#5F93CF;stroke-width:0.5;" x1="585.95" x2="853.95" y1="1700.2211" y2="1700.2211"/><text fill="#000000" font-family="sans-serif" font-size="14" lengthAdjust="spacing" textLength="258" x="590.95" y="1717.7563">+clampNumber(v, min, max): number</text><text fill="#000000" font-family="sans-serif" font-size="14" lengthAdjust="spacing" textLength="158" x="590.95" y="1734.2445">+formatSec(ms): string</text><text fill="#000000" font-family="sans-serif" font-size="14" lengthAdjust="spacing" textLength="139" x="590.95" y="1750.7328">+mod(a, n): number</text></g><!--class CycleEngine--><g id="elem_CycleEngine"><rect codeLine="38" fill="#E6EFFA" height="451.7188" id="CycleEngine" rx="2.5" ry="2.5" style="stroke:#5F93CF;stroke-width:0.5;" width="370" x="534.95" y="1007.46"/><ellipse cx="674.2" cy="1023.46" fill="#ADD1B2" rx="11" ry="11" style="stroke:#181818;stroke-width:1.0;"/><path d="M676.6731,1029.6031 Q676.0921,1029.9019 675.4529,1030.0513 Q674.8138,1030.2007 674.1082,1030.2007 Q671.6014,1030.2007 670.2815,1028.5489 Q668.9617,1026.897 668.9617,1023.7759 Q668.9617,1020.6465 670.2815,1018.9947 Q671.6014,1017.3428 674.1082,1017.3428 Q674.8138,1017.3428 675.4612,1017.4922 Q676.1087,1017.6416 676.6731,1017.9405 L676.6731,1020.6631 Q676.0423,1020.0821 675.4488,1019.8123 Q674.8553,1019.5425 674.2244,1019.5425 Q672.8797,1019.5425 672.1949,1020.6092 Q671.5101,1021.6758 671.5101,1023.7759 Q671.5101,1025.8677 672.1949,1026.9344 Q672.8797,1028.001 674.2244,1028.001 Q674.8553,1028.001 675.4488,1027.7312 Q676.0423,1027.4615 676.6731,1026.8804 Z " fill="#000000"/><text fill="#000000" font-family="sans-serif" font-size="14" lengthAdjust="spacing" textLength="83" x="694.7" y="1028.751">CycleEngine</text><line style="stroke:#5F93CF;stroke-width:0.5;" x1="535.95" x2="903.95" y1="1039.46" y2="1039.46"/><text fill="#000000" font-family="sans-serif" font-size="14" lengthAdjust="spacing" textLength="138" x="540.95" y="1056.9952">-_apneaMs: number</text><text fill="#000000" font-family="sans-serif" font-size="14" lengthAdjust="spacing" textLength="122" x="540.95" y="1073.4834">-_expMs: number</text><text fill="#000000" font-family="sans-serif" font-size="14" lengthAdjust="spacing" textLength="160" x="540.95" y="1089.9717">-_activeApnea: number</text><text fill="#000000" font-family="sans-serif" font-size="14" lengthAdjust="spacing" textLength="142" x="540.95" y="1106.46">-_activeExp: number</text><text fill="#000000" font-family="sans-serif" font-size="14" lengthAdjust="spacing" textLength="217" x="540.95" y="1122.9483">-_pendingApnea: number | null</text><text fill="#000000" font-family="sans-serif" font-size="14" lengthAdjust="spacing" textLength="199" x="540.95" y="1139.4366">-_pendingExp: number | null</text><text fill="#000000" font-family="sans-serif" font-size="14" lengthAdjust="spacing" textLength="159" x="540.95" y="1155.9248">-_hasPending: boolean</text><text fill="#000000" font-family="sans-serif" font-size="14" lengthAdjust="spacing" textLength="178" x="540.95" y="1172.4131">-_phaseOffsetMs: number</text><text fill="#000000" font-family="sans-serif" font-size="14" lengthAdjust="spacing" textLength="149" x="540.95" y="1188.9014">-_cycleIndex: number</text><line style="stroke:#5F93CF;stroke-width:1.0;" x1="535.95" x2="903.95" y1="1195.8545" y2="1195.8545"/><text fill="#000000" font-family="sans-serif" font-size="14" lengthAdjust="spacing" textLength="134" x="540.95" y="1213.3897">+apneaMs: number</text><text fill="#000000" font-family="sans-serif" font-size="14" lengthAdjust="spacing" textLength="118" x="540.95" y="1229.878">+expMs: number</text><text fill="#000000" font-family="sans-serif" font-size="14" lengthAdjust="spacing" textLength="175" x="540.95" y="1246.3663">+activeApneaMs: number</text><text fill="#000000" font-family="sans-serif" font-size="14" lengthAdjust="spacing" textLength="157" x="540.95" y="1262.8545">+activeExpMs: number</text><text fill="#000000" font-family="sans-serif" font-size="14" lengthAdjust="spacing" textLength="185" x="540.95" y="1279.3428">+cycleDurationMs: number</text><text fill="#000000" font-family="sans-serif" font-size="14" lengthAdjust="spacing" textLength="174" x="540.95" y="1295.8311">+phaseOffsetMs: number</text><text fill="#000000" font-family="sans-serif" font-size="14" lengthAdjust="spacing" textLength="145" x="540.95" y="1312.3194">+cycleIndex: number</text><line style="stroke:#5F93CF;stroke-width:1.0;" x1="535.95" x2="903.95" y1="1319.2725" y2="1319.2725"/><text fill="#000000" font-family="sans-serif" font-size="14" lengthAdjust="spacing" textLength="239" x="540.95" y="1336.8077">+setApnea(ms, deferChange): void</text><text fill="#000000" font-family="sans-serif" font-size="14" lengthAdjust="spacing" textLength="221" x="540.95" y="1353.2959">+setExp(ms, deferChange): void</text><text fill="#000000" font-family="sans-serif" font-size="14" lengthAdjust="spacing" textLength="358" x="540.95" y="1369.7842">+computePhaseMs(nowPerf, cycleStartPerf): number</text><text fill="#000000" font-family="sans-serif" font-size="14" lengthAdjust="spacing" textLength="155" x="540.95" y="1386.2725">+nudge(deltaMs): void</text><text fill="#000000" font-family="sans-serif" font-size="14" lengthAdjust="spacing" textLength="173" x="540.95" y="1402.7608">+resetPhaseOffset(): void</text><text fill="#000000" font-family="sans-serif" font-size="14" lengthAdjust="spacing" textLength="168" x="540.95" y="1419.2491">+onCycleRollover(): void</text><text fill="#000000" font-family="sans-serif" font-size="14" lengthAdjust="spacing" textLength="92" x="540.95" y="1435.7373">+reset(): void</text><text fill="#000000" font-family="sans-serif" font-size="14" lengthAdjust="spacing" textLength="222" x="540.95" y="1452.2256">+phaseToPct(phaseMs): number</text></g><!--class AudioService--><g id="elem_AudioService"><rect codeLine="67" fill="#E6EFFA" height="484.6953" id="AudioService" rx="2.5" ry="2.5" style="stroke:#5F93CF;stroke-width:0.5;" width="396" x="565.95" y="445.76"/><ellipse cx="715.2" cy="461.76" fill="#ADD1B2" rx="11" ry="11" style="stroke:#181818;stroke-width:1.0;"/><path d="M717.6731,467.9031 Q717.0921,468.2019 716.4529,468.3513 Q715.8138,468.5007 715.1082,468.5007 Q712.6014,468.5007 711.2815,466.8489 Q709.9617,465.197 709.9617,462.0759 Q709.9617,458.9465 711.2815,457.2947 Q712.6014,455.6428 715.1082,455.6428 Q715.8138,455.6428 716.4612,455.7922 Q717.1087,455.9416 717.6731,456.2405 L717.6731,458.9631 Q717.0423,458.3821 716.4488,458.1123 Q715.8553,457.8425 715.2244,457.8425 Q713.8797,457.8425 713.1949,458.9092 Q712.5101,459.9758 712.5101,462.0759 Q712.5101,464.1677 713.1949,465.2344 Q713.8797,466.301 715.2244,466.301 Q715.8553,466.301 716.4488,466.0312 Q717.0423,465.7615 717.6731,465.1804 Z " fill="#000000"/><text fill="#000000" font-family="sans-serif" font-size="14" lengthAdjust="spacing" textLength="89" x="735.7" y="467.051">AudioService</text><line style="stroke:#5F93CF;stroke-width:0.5;" x1="566.95" x2="960.95" y1="477.76" y2="477.76"/><text fill="#000000" font-family="sans-serif" font-size="14" lengthAdjust="spacing" textLength="179" x="571.95" y="495.2952">-_ctx: AudioContext | null</text><text fill="#000000" font-family="sans-serif" font-size="14" lengthAdjust="spacing" textLength="207" x="571.95" y="511.7834">-_masterGain: GainNode | null</text><text fill="#000000" font-family="sans-serif" font-size="14" lengthAdjust="spacing" textLength="203" x="571.95" y="528.2717">-_noiseBuf: AudioBuffer | null</text><text fill="#000000" font-family="sans-serif" font-size="14" lengthAdjust="spacing" textLength="196" x="571.95" y="544.76">-_schedTimer: number | null</text><text fill="#000000" font-family="sans-serif" font-size="14" lengthAdjust="spacing" textLength="217" x="571.95" y="561.2483">-_cycleStartAudioTime: number</text><text fill="#000000" font-family="sans-serif" font-size="14" lengthAdjust="spacing" textLength="233" x="571.95" y="577.7366">-_lastPlannedTingleTime: number</text><text fill="#000000" font-family="sans-serif" font-size="14" lengthAdjust="spacing" textLength="144" x="571.95" y="594.2248">-_lastPlanned: object</text><line style="stroke:#5F93CF;stroke-width:1.0;" x1="566.95" x2="960.95" y1="601.178" y2="601.178"/><text fill="#000000" font-family="sans-serif" font-size="14" lengthAdjust="spacing" textLength="144" x="571.95" y="618.7131">+isRunning: boolean</text><text fill="#000000" font-family="sans-serif" font-size="14" lengthAdjust="spacing" textLength="157" x="571.95" y="635.2014">+currentTime: number</text><text fill="#000000" font-family="sans-serif" font-size="14" lengthAdjust="spacing" textLength="213" x="571.95" y="651.6897">+cycleStartAudioTime: number</text><line style="stroke:#5F93CF;stroke-width:1.0;" x1="566.95" x2="960.95" y1="658.6428" y2="658.6428"/><text fill="#000000" font-family="sans-serif" font-size="14" lengthAdjust="spacing" textLength="209" x="571.95" y="676.178">+ensure(): Promise&lt;boolean&gt;</text><text fill="#000000" font-family="sans-serif" font-size="14" lengthAdjust="spacing" textLength="322" x="571.95" y="692.6663">+syncOnStart(isResume, pausedPhaseMs): void</text><text fill="#000000" font-family="sans-serif" font-size="14" lengthAdjust="spacing" textLength="356" x="571.95" y="709.1545">+markPastCountdownBeeps(engine, phaseMs): void</text><text fill="#000000" font-family="sans-serif" font-size="14" lengthAdjust="spacing" textLength="294" x="571.95" y="725.6428">+advanceCycleStart(cycleDurationMs): void</text><text fill="#000000" font-family="sans-serif" font-size="14" lengthAdjust="spacing" textLength="155" x="571.95" y="742.1311">+nudge(deltaMs): void</text><text fill="#000000" font-family="sans-serif" font-size="14" lengthAdjust="spacing" textLength="111" x="571.95" y="758.6194">+unmute(): void</text><text fill="#000000" font-family="sans-serif" font-size="14" lengthAdjust="spacing" textLength="93" x="571.95" y="775.1077">+mute(): void</text><text fill="#000000" font-family="sans-serif" font-size="14" lengthAdjust="spacing" textLength="328" x="571.95" y="791.5959">+startScheduler(engine, isBeepEnabledFn): void</text><text fill="#000000" font-family="sans-serif" font-size="14" lengthAdjust="spacing" textLength="156" x="571.95" y="808.0842">+stopScheduler(): void</text><text fill="#000000" font-family="sans-serif" font-size="14" lengthAdjust="spacing" textLength="307" x="571.95" y="824.5725">+schedulerTick(engine, isBeepEnabled): void</text><text fill="#000000" font-family="sans-serif" font-size="14" lengthAdjust="spacing" textLength="147" x="571.95" y="841.0608">+resetPlanned(): void</text><text fill="#000000" font-family="sans-serif" font-size="14" lengthAdjust="spacing" textLength="313" x="571.95" y="857.5491">+recomputePlannedAfterNudge(engine): void</text><text fill="#000000" font-family="sans-serif" font-size="14" lengthAdjust="spacing" textLength="211" x="571.95" y="874.0373">+getPhaseMs(engine): number</text><text fill="#000000" font-family="sans-serif" font-size="14" lengthAdjust="spacing" textLength="216" x="571.95" y="890.5256">-_getNoiseBuffer(): AudioBuffer</text><text fill="#000000" font-family="sans-serif" font-size="14" lengthAdjust="spacing" textLength="170" x="571.95" y="907.0139">-_playSoftBeepAt(t): void</text><text fill="#000000" font-family="sans-serif" font-size="14" lengthAdjust="spacing" textLength="384" x="571.95" y="923.5022">-_playCycleStartTingleAt(tStartAudio, durationSec): void</text></g><!--class BarRenderer--><g id="elem_BarRenderer"><rect codeLine="98" fill="#E6EFFA" height="245.8594" id="BarRenderer" rx="2.5" ry="2.5" style="stroke:#5F93CF;stroke-width:0.5;" width="231" x="1360.45" y="565.18"/><ellipse cx="1429.2" cy="581.18" fill="#ADD1B2" rx="11" ry="11" style="stroke:#181818;stroke-width:1.0;"/><path d="M1431.6731,587.3231 Q1431.0921,587.6219 1430.4529,587.7713 Q1429.8138,587.9207 1429.1082,587.9207 Q1426.6014,587.9207 1425.2815,586.2689 Q1423.9617,584.617 1423.9617,581.4959 Q1423.9617,578.3665 1425.2815,576.7147 Q1426.6014,575.0628 1429.1082,575.0628 Q1429.8138,575.0628 1430.4612,575.2122 Q1431.1087,575.3616 1431.6731,575.6605 L1431.6731,578.3831 Q1431.0423,577.8021 1430.4488,577.5323 Q1429.8553,577.2625 1429.2244,577.2625 Q1427.8797,577.2625 1427.1949,578.3292 Q1426.5101,579.3958 1426.5101,581.4959 Q1426.5101,583.5877 1427.1949,584.6544 Q1427.8797,585.721 1429.2244,585.721 Q1429.8553,585.721 1430.4488,585.4512 Q1431.0423,585.1815 1431.6731,584.6004 Z " fill="#000000"/><text fill="#000000" font-family="sans-serif" font-size="14" lengthAdjust="spacing" textLength="85" x="1449.7" y="586.471">BarRenderer</text><line style="stroke:#5F93CF;stroke-width:0.5;" x1="1361.45" x2="1590.45" y1="597.18" y2="597.18"/><text fill="#000000" font-family="sans-serif" font-size="14" lengthAdjust="spacing" textLength="145" x="1366.45" y="614.7152">-_fillEl: HTMLElement</text><text fill="#000000" font-family="sans-serif" font-size="14" lengthAdjust="spacing" textLength="177" x="1366.45" y="631.2034">-_markerEl: HTMLElement</text><text fill="#000000" font-family="sans-serif" font-size="14" lengthAdjust="spacing" textLength="186" x="1366.45" y="647.6917">-_marker3El: HTMLElement</text><text fill="#000000" font-family="sans-serif" font-size="14" lengthAdjust="spacing" textLength="186" x="1366.45" y="664.18">-_marker0El: HTMLElement</text><text fill="#000000" font-family="sans-serif" font-size="14" lengthAdjust="spacing" textLength="203" x="1366.45" y="680.6683">-_sortieLabelEl: HTMLElement</text><text fill="#000000" font-family="sans-serif" font-size="14" lengthAdjust="spacing" textLength="195" x="1366.45" y="697.1566">-_startLabelEl: HTMLElement</text><text fill="#000000" font-family="sans-serif" font-size="14" lengthAdjust="spacing" textLength="211" x="1366.45" y="713.6448">-_arriveeLabelEl: HTMLElement</text><text fill="#000000" font-family="sans-serif" font-size="14" lengthAdjust="spacing" textLength="217" x="1366.45" y="730.1331">-_inspiStartLabel: HTMLElement</text><text fill="#000000" font-family="sans-serif" font-size="14" lengthAdjust="spacing" textLength="192" x="1366.45" y="746.6214">-_cycleTextEl: HTMLElement</text><text fill="#000000" font-family="sans-serif" font-size="14" lengthAdjust="spacing" textLength="164" x="1366.45" y="763.1097">-_tTextEl: HTMLElement</text><line style="stroke:#5F93CF;stroke-width:1.0;" x1="1361.45" x2="1590.45" y1="770.0628" y2="770.0628"/><text fill="#000000" font-family="sans-serif" font-size="14" lengthAdjust="spacing" textLength="208" x="1366.45" y="787.598">+updateMarkers(engine): void</text><text fill="#000000" font-family="sans-serif" font-size="14" lengthAdjust="spacing" textLength="219" x="1366.45" y="804.0862">+render(phaseMs, engine): void</text></g><!--class CountdownController--><g id="elem_CountdownController"><rect codeLine="114" fill="#E6EFFA" height="130.4414" id="CountdownController" rx="2.5" ry="2.5" style="stroke:#5F93CF;stroke-width:0.5;" width="233" x="298.45" y="622.89"/><ellipse cx="336.4" cy="638.89" fill="#ADD1B2" rx="11" ry="11" style="stroke:#181818;stroke-width:1.0;"/><path d="M338.8731,645.0331 Q338.2921,645.3319 337.6529,645.4813 Q337.0138,645.6307 336.3082,645.6307 Q333.8014,645.6307 332.4815,643.9789 Q331.1617,642.327 331.1617,639.2059 Q331.1617,636.0765 332.4815,634.4247 Q333.8014,632.7728 336.3082,632.7728 Q337.0138,632.7728 337.6612,632.9222 Q338.3087,633.0716 338.8731,633.3705 L338.8731,636.0931 Q338.2423,635.5121 337.6488,635.2423 Q337.0553,634.9725 336.4244,634.9725 Q335.0797,634.9725 334.3949,636.0392 Q333.7101,637.1058 333.7101,639.2059 Q333.7101,641.2977 334.3949,642.3644 Q335.0797,643.431 336.4244,643.431 Q337.0553,643.431 337.6488,643.1612 Q338.2423,642.8915 338.8731,642.3104 Z " fill="#000000"/><text fill="#000000" font-family="sans-serif" font-size="14" lengthAdjust="spacing" textLength="150" x="355.5" y="644.181">CountdownController</text><line style="stroke:#5F93CF;stroke-width:0.5;" x1="299.45" x2="530.45" y1="654.89" y2="654.89"/><text fill="#000000" font-family="sans-serif" font-size="14" lengthAdjust="spacing" textLength="128" x="304.45" y="672.4252">-_el: HTMLElement</text><text fill="#000000" font-family="sans-serif" font-size="14" lengthAdjust="spacing" textLength="159" x="304.45" y="688.9134">-_numEl: HTMLElement</text><line style="stroke:#5F93CF;stroke-width:1.0;" x1="299.45" x2="530.45" y1="695.8666" y2="695.8666"/><text fill="#000000" font-family="sans-serif" font-size="14" lengthAdjust="spacing" textLength="221" x="304.45" y="713.4017">+update(phaseMs, engine): void</text><text fill="#000000" font-family="sans-serif" font-size="14" lengthAdjust="spacing" textLength="88" x="304.45" y="729.89">+hide(): void</text><text fill="#000000" font-family="sans-serif" font-size="14" lengthAdjust="spacing" textLength="120" x="304.45" y="746.3783">-_show(sec): void</text></g><!--class UIController--><g id="elem_UIController"><rect codeLine="123" fill="#E6EFFA" height="427.2305" id="UIController" rx="2.5" ry="2.5" style="stroke:#5F93CF;stroke-width:0.5;" width="271" x="1610.45" y="1019.7"/><ellipse cx="1699.7" cy="1035.7" fill="#ADD1B2" rx="11" ry="11" style="stroke:#181818;stroke-width:1.0;"/><path d="M1702.1731,1041.8431 Q1701.5921,1042.1419 1700.9529,1042.2913 Q1700.3138,1042.4407 1699.6082,1042.4407 Q1697.1014,1042.4407 1695.7815,1040.7889 Q1694.4617,1039.137 1694.4617,1036.0159 Q1694.4617,1032.8865 1695.7815,1031.2347 Q1697.1014,1029.5828 1699.6082,1029.5828 Q1700.3138,1029.5828 1700.9612,1029.7322 Q1701.6087,1029.8816 1702.1731,1030.1805 L1702.1731,1032.9031 Q1701.5423,1032.3221 1700.9488,1032.0523 Q1700.3553,1031.7825 1699.7244,1031.7825 Q1698.3797,1031.7825 1697.6949,1032.8492 Q1697.0101,1033.9158 1697.0101,1036.0159 Q1697.0101,1038.1077 1697.6949,1039.1744 Q1698.3797,1040.241 1699.7244,1040.241 Q1700.3553,1040.241 1700.9488,1039.9712 Q1701.5423,1039.7015 1702.1731,1039.1204 Z " fill="#000000"/><text fill="#000000" font-family="sans-serif" font-size="14" lengthAdjust="spacing" textLength="84" x="1720.2" y="1040.991">UIController</text><line style="stroke:#5F93CF;stroke-width:0.5;" x1="1611.45" x2="1880.45" y1="1051.7" y2="1051.7"/><text fill="#000000" font-family="sans-serif" font-size="14" lengthAdjust="spacing" textLength="249" x="1616.45" y="1069.2352">+apneaSecInput: HTMLInputElement</text><text fill="#000000" font-family="sans-serif" font-size="14" lengthAdjust="spacing" textLength="233" x="1616.45" y="1085.7234">+expSecInput: HTMLInputElement</text><text fill="#000000" font-family="sans-serif" font-size="14" lengthAdjust="spacing" textLength="259" x="1616.45" y="1102.2117">+nudgeSecSelect: HTMLSelectElement</text><text fill="#000000" font-family="sans-serif" font-size="14" lengthAdjust="spacing" textLength="210" x="1616.45" y="1118.7">+startBtn: HTMLButtonElement</text><text fill="#000000" font-family="sans-serif" font-size="14" lengthAdjust="spacing" textLength="209" x="1616.45" y="1135.1883">+stopBtn: HTMLButtonElement</text><text fill="#000000" font-family="sans-serif" font-size="14" lengthAdjust="spacing" textLength="213" x="1616.45" y="1151.6766">+resetBtn: HTMLButtonElement</text><text fill="#000000" font-family="sans-serif" font-size="14" lengthAdjust="spacing" textLength="254" x="1616.45" y="1168.1648">+jumpSortieBtn: HTMLButtonElement</text><text fill="#000000" font-family="sans-serif" font-size="14" lengthAdjust="spacing" textLength="254" x="1616.45" y="1184.6531">+nudgeBackBtn: HTMLButtonElement</text><text fill="#000000" font-family="sans-serif" font-size="14" lengthAdjust="spacing" textLength="251" x="1616.45" y="1201.1414">+nudgeFwdBtn: HTMLButtonElement</text><text fill="#000000" font-family="sans-serif" font-size="14" lengthAdjust="spacing" textLength="240" x="1616.45" y="1217.6297">+uiToggleBtn: HTMLButtonElement</text><text fill="#000000" font-family="sans-serif" font-size="14" lengthAdjust="spacing" textLength="237" x="1616.45" y="1234.118">+beepEnabled: HTMLInputElement</text><text fill="#000000" font-family="sans-serif" font-size="14" lengthAdjust="spacing" textLength="200" x="1616.45" y="1250.6062">-_phaseTextEl: HTMLElement</text><text fill="#000000" font-family="sans-serif" font-size="14" lengthAdjust="spacing" textLength="136" x="1616.45" y="1267.0945">+nudgeMs: number</text><line style="stroke:#5F93CF;stroke-width:1.0;" x1="1611.45" x2="1880.45" y1="1274.0477" y2="1274.0477"/><text fill="#000000" font-family="sans-serif" font-size="14" lengthAdjust="spacing" textLength="177" x="1616.45" y="1291.5828">+readApneaMs(): number</text><text fill="#000000" font-family="sans-serif" font-size="14" lengthAdjust="spacing" textLength="199" x="1616.45" y="1308.0711">+readExpSecAsMs(): number</text><text fill="#000000" font-family="sans-serif" font-size="14" lengthAdjust="spacing" textLength="170" x="1616.45" y="1324.5594">+setRunningState(): void</text><text fill="#000000" font-family="sans-serif" font-size="14" lengthAdjust="spacing" textLength="169" x="1616.45" y="1341.0477">+setStoppedState(): void</text><text fill="#000000" font-family="sans-serif" font-size="14" lengthAdjust="spacing" textLength="149" x="1616.45" y="1357.5359">+setResetState(): void</text><text fill="#000000" font-family="sans-serif" font-size="14" lengthAdjust="spacing" textLength="187" x="1616.45" y="1374.0242">+setJumpSortieState(): void</text><text fill="#000000" font-family="sans-serif" font-size="14" lengthAdjust="spacing" textLength="176" x="1616.45" y="1390.5125">+setPhaseText(text): void</text><text fill="#000000" font-family="sans-serif" font-size="14" lengthAdjust="spacing" textLength="184" x="1616.45" y="1407.0008">+isBeepEnabled(): boolean</text><text fill="#000000" font-family="sans-serif" font-size="14" lengthAdjust="spacing" textLength="177" x="1616.45" y="1423.4891">+toggleCompactUI(): void</text><text fill="#000000" font-family="sans-serif" font-size="14" lengthAdjust="spacing" textLength="193" x="1616.45" y="1439.9773">+bindEvents(handlers): void</text></g><!--class App--><g id="elem_App"><rect codeLine="150" fill="#E6EFFA" height="377.7656" id="App" rx="2.5" ry="2.5" style="stroke:#5F93CF;stroke-width:0.5;" width="262" x="1040.95" y="7"/><ellipse cx="1153.7" cy="23" fill="#ADD1B2" rx="11" ry="11" style="stroke:#181818;stroke-width:1.0;"/><path d="M1156.1731,29.1431 Q1155.5921,29.4419 1154.9529,29.5913 Q1154.3138,29.7407 1153.6082,29.7407 Q1151.1014,29.7407 1149.7815,28.0889 Q1148.4617,26.437 1148.4617,23.3159 Q1148.4617,20.1865 1149.7815,18.5347 Q1151.1014,16.8828 1153.6082,16.8828 Q1154.3138,16.8828 1154.9612,17.0322 Q1155.6087,17.1816 1156.1731,17.4805 L1156.1731,20.2031 Q1155.5423,19.6221 1154.9488,19.3523 Q1154.3553,19.0825 1153.7244,19.0825 Q1152.3797,19.0825 1151.6949,20.1492 Q1151.0101,21.2158 1151.0101,23.3159 Q1151.0101,25.4077 1151.6949,26.4744 Q1152.3797,27.541 1153.7244,27.541 Q1154.3553,27.541 1154.9488,27.2712 Q1155.5423,27.0015 1156.1731,26.4204 Z " fill="#000000"/><text fill="#000000" font-family="sans-serif" font-size="14" lengthAdjust="spacing" textLength="28" x="1174.2" y="28.291">App</text><line style="stroke:#5F93CF;stroke-width:0.5;" x1="1041.95" x2="1301.95" y1="39" y2="39"/><text fill="#000000" font-family="sans-serif" font-size="14" lengthAdjust="spacing" textLength="153" x="1046.95" y="56.5352">-_engine: CycleEngine</text><text fill="#000000" font-family="sans-serif" font-size="14" lengthAdjust="spacing" textLength="151" x="1046.95" y="73.0234">-_audio: AudioService</text><text fill="#000000" font-family="sans-serif" font-size="14" lengthAdjust="spacing" textLength="131" x="1046.95" y="89.5117">-_bar: BarRenderer</text><text fill="#000000" font-family="sans-serif" font-size="14" lengthAdjust="spacing" textLength="250" x="1046.95" y="106">-_countdown: CountdownController</text><text fill="#000000" font-family="sans-serif" font-size="14" lengthAdjust="spacing" textLength="120" x="1046.95" y="122.4883">-_ui: UIController</text><text fill="#000000" font-family="sans-serif" font-size="14" lengthAdjust="spacing" textLength="134" x="1046.95" y="138.9766">-_running: boolean</text><text fill="#000000" font-family="sans-serif" font-size="14" lengthAdjust="spacing" textLength="148" x="1046.95" y="155.4648">-_rafId: number | null</text><text fill="#000000" font-family="sans-serif" font-size="14" lengthAdjust="spacing" textLength="169" x="1046.95" y="171.9531">-_cycleStartPerf: number</text><text fill="#000000" font-family="sans-serif" font-size="14" lengthAdjust="spacing" textLength="139" x="1046.95" y="188.4414">-_isPaused: boolean</text><text fill="#000000" font-family="sans-serif" font-size="14" lengthAdjust="spacing" textLength="186" x="1046.95" y="204.9297">-_pausedPhaseMs: number</text><line style="stroke:#5F93CF;stroke-width:1.0;" x1="1041.95" x2="1301.95" y1="211.8828" y2="211.8828"/><text fill="#000000" font-family="sans-serif" font-size="14" lengthAdjust="spacing" textLength="80" x="1046.95" y="229.418">+init(): void</text><text fill="#000000" font-family="sans-serif" font-size="14" lengthAdjust="spacing" textLength="177" x="1046.95" y="245.9063">-_onApneaChange(): void</text><text fill="#000000" font-family="sans-serif" font-size="14" lengthAdjust="spacing" textLength="159" x="1046.95" y="262.3945">-_onExpChange(): void</text><text fill="#000000" font-family="sans-serif" font-size="14" lengthAdjust="spacing" textLength="170" x="1046.95" y="278.8828">-_start(): Promise&lt;void&gt;</text><text fill="#000000" font-family="sans-serif" font-size="14" lengthAdjust="spacing" textLength="92" x="1046.95" y="295.3711">-_stop(): void</text><text fill="#000000" font-family="sans-serif" font-size="14" lengthAdjust="spacing" textLength="96" x="1046.95" y="311.8594">-_reset(): void</text><text fill="#000000" font-family="sans-serif" font-size="14" lengthAdjust="spacing" textLength="155" x="1046.95" y="328.3477">-_jumpToSortie(): void</text><text fill="#000000" font-family="sans-serif" font-size="14" lengthAdjust="spacing" textLength="159" x="1046.95" y="344.8359">-_nudge(deltaMs): void</text><text fill="#000000" font-family="sans-serif" font-size="14" lengthAdjust="spacing" textLength="93" x="1046.95" y="361.3242">-_loop(): void</text><text fill="#000000" font-family="sans-serif" font-size="14" lengthAdjust="spacing" textLength="139" x="1046.95" y="377.8125">-_cancelLoop(): void</text></g><g id="elem_GMN27"><path d="M1338.45,160.26 L1338.45,191.88 L1303.27,195.88 L1338.45,199.88 L1338.45,231.5022 A0,0 0 0 0 1338.45,231.5022 L1555.45,231.5022 A0,0 0 0 0 1555.45,231.5022 L1555.45,170.26 L1545.45,160.26 L1338.45,160.26 A0,0 0 0 0 1338.45,160.26 " fill="#FEFFDD" style="stroke:#181818;stroke-width:0.5;"/><path d="M1545.45,160.26 L1545.45,170.26 L1555.45,170.26 L1545.45,160.26 " fill="#FEFFDD" style="stroke:#181818;stroke-width:0.5;"/><text fill="#000000" font-family="sans-serif" font-size="13" lengthAdjust="spacing" textLength="149" x="1344.45" y="177.8284">Point d'entr&#233;e principal.</text><text fill="#000000" font-family="sans-serif" font-size="13" lengthAdjust="spacing" textLength="196" x="1344.45" y="193.1389">Orchestre tous les composants</text><text fill="#000000" font-family="sans-serif" font-size="13" lengthAdjust="spacing" textLength="154" x="1344.45" y="208.4495">et g&#232;re le cycle de vie de</text><text fill="#000000" font-family="sans-serif" font-size="13" lengthAdjust="spacing" textLength="195" x="1344.45" y="223.76">l'application (start/stop/reset).</text></g><g id="elem_GMN30"><path d="M1040.95,1182.39 L1040.95,1284.2533 L1372.95,1284.2533 L1372.95,1192.39 L1362.95,1182.39 L1040.95,1182.39 " fill="#FEFFDD" style="stroke:#181818;stroke-width:0.5;"/><path d="M1362.95,1182.39 L1362.95,1192.39 L1372.95,1192.39 L1362.95,1182.39 " fill="#FEFFDD" style="stroke:#181818;stroke-width:1.0;"/><text fill="#000000" font-family="sans-serif" font-size="13" lengthAdjust="spacing" textLength="206" x="1046.95" y="1199.9584">G&#232;re la logique du cycle d'apn&#233;e:</text><text fill="#000000" font-family="sans-serif" font-size="13" lengthAdjust="spacing" textLength="130" x="1046.95" y="1215.2689">- Timing des phases</text><text fill="#000000" font-family="sans-serif" font-size="13" lengthAdjust="spacing" textLength="118" x="1046.95" y="1230.5795">- Rollover de cycle</text><text fill="#000000" font-family="sans-serif" font-size="13" lengthAdjust="spacing" textLength="113" x="1046.95" y="1245.89">- Nudge temporel</text><text fill="#000000" font-family="sans-serif" font-size="13" lengthAdjust="spacing" textLength="311" x="1046.95" y="1261.2005">- Param&#232;tres en attente si cycle actif ou en pause</text><text fill="#000000" font-family="sans-serif" font-size="13" lengthAdjust="spacing" textLength="231" x="1046.95" y="1276.5111">- Calcul pourcentage de progression</text></g><g id="elem_GMN33"><path d="M996.45,644.84 L996.45,684.11 L962.27,688.11 L996.45,692.11 L996.45,731.3927 A0,0 0 0 0 996.45,731.3927 L1255.45,731.3927 A0,0 0 0 0 1255.45,731.3927 L1255.45,654.84 L1245.45,644.84 L996.45,644.84 A0,0 0 0 0 996.45,644.84 " fill="#FEFFDD" style="stroke:#181818;stroke-width:0.5;"/><path d="M1245.45,644.84 L1245.45,654.84 L1255.45,654.84 L1245.45,644.84 " fill="#FEFFDD" style="stroke:#181818;stroke-width:0.5;"/><text fill="#000000" font-family="sans-serif" font-size="13" lengthAdjust="spacing" textLength="214" x="1002.45" y="662.4084">Service audio avec Web Audio API:</text><text fill="#000000" font-family="sans-serif" font-size="13" lengthAdjust="spacing" textLength="172" x="1002.45" y="677.7189">- Beeps de synchronisation</text><text fill="#000000" font-family="sans-serif" font-size="13" lengthAdjust="spacing" textLength="181" x="1002.45" y="693.0295">- Sons de tingle (bruit blanc)</text><text fill="#000000" font-family="sans-serif" font-size="13" lengthAdjust="spacing" textLength="142" x="1002.45" y="708.34">- Scheduler lookahead</text><text fill="#000000" font-family="sans-serif" font-size="13" lengthAdjust="spacing" textLength="238" x="1002.45" y="723.6505">- Synchronisation audio/performance</text></g><!--reverse link App to CycleEngine--><g id="link_App_CycleEngine"><path codeLine="175" d="M1260.7203,396.5749 C1267.1903,416.7149 1269.04,425.74 1272.95,445.76 C1293.58,551.48 1340.21,846.33 1272.95,930.46 C1175.94,1051.82 1066.91,930.47 931.95,1007.46 C922.86,1012.64 913.93,1018.34 905.18,1024.45 " fill="none" id="App-backto-CycleEngine" style="stroke:#5F93CF;stroke-width:1.0;"/><polygon fill="#5F93CF" points="1257.05,385.15,1255.0768,392.0859,1260.7203,396.5749,1262.6934,389.639,1257.05,385.15" style="stroke:#5F93CF;stroke-width:1.0;"/><text fill="#000000" font-family="sans-serif" font-size="13" lengthAdjust="spacing" textLength="8" x="913.1631" y="1012.8968">1</text></g><!--reverse link App to AudioService--><g id="link_App_AudioService"><path codeLine="176" d="M1032.9341,363.9139 C1007.8941,394.0039 988.85,416.89 962.25,448.84 " fill="none" id="App-backto-AudioService" style="stroke:#5F93CF;stroke-width:1.0;"/><polygon fill="#5F93CF" points="1040.61,354.69,1033.6974,356.7433,1032.9341,363.9139,1039.8467,361.8606,1040.61,354.69" style="stroke:#5F93CF;stroke-width:1.0;"/><text fill="#000000" font-family="sans-serif" font-size="13" lengthAdjust="spacing" textLength="8" x="970.1523" y="436.7751">1</text></g><!--reverse link App to BarRenderer--><g id="link_App_BarRenderer"><path codeLine="177" d="M1310.2092,378.351 C1320.8492,393.791 1324.37,399.49 1333.95,414.76 C1363.83,462.43 1393.2,517.06 1417.41,564.82 " fill="none" id="App-backto-BarRenderer" style="stroke:#5F93CF;stroke-width:1.0;"/><polygon fill="#5F93CF" points="1303.4,368.47,1303.5109,375.6802,1310.2092,378.351,1310.0983,371.1408,1303.4,368.47" style="stroke:#5F93CF;stroke-width:1.0;"/><text fill="#000000" font-family="sans-serif" font-size="13" lengthAdjust="spacing" textLength="8" x="1405.599" y="554.4278">1</text></g><!--reverse link App to CountdownController--><g id="link_App_CountdownController"><path codeLine="178" d="M1028.8153,224.8328 C892.3753,256.7428 691.1,320.58 548.95,445.76 C494.73,493.51 457.9,568.72 436.78,622.48 " fill="none" id="App-backto-CountdownController" style="stroke:#5F93CF;stroke-width:1.0;"/><polygon fill="#5F93CF" points="1040.5,222.1,1033.7467,219.5715,1028.8153,224.8328,1035.5686,227.3613,1040.5,222.1" style="stroke:#5F93CF;stroke-width:1.0;"/><text fill="#000000" font-family="sans-serif" font-size="13" lengthAdjust="spacing" textLength="8" x="430.7302" y="612.0667">1</text></g><!--reverse link App to UIController--><g id="link_App_UIController"><path codeLine="179" d="M1312.8997,379.8934 C1318.6197,384.2334 1314.93,381.04 1320.95,384.76 C1432.19,453.66 1518.13,351.58 1608.95,445.76 C1754.12,596.3 1775.76,842.6 1769.06,1019.5 " fill="none" id="App-backto-UIController" style="stroke:#5F93CF;stroke-width:1.0;"/><polygon fill="#5F93CF" points="1303.34,372.64,1305.7021,379.4533,1312.8997,379.8934,1310.5377,373.0801,1303.34,372.64" style="stroke:#5F93CF;stroke-width:1.0;"/><text fill="#000000" font-family="sans-serif" font-size="13" lengthAdjust="spacing" textLength="8" x="1761.7468" y="1009.1204">1</text></g><!--link App to Helpers--><g id="link_App_Helpers"><path codeLine="182" d="M1040.55,214.13 C815.8,246.62 372.83,324.71 280.95,445.76 C6,808.05 176.66,1076.83 422.95,1459.18 C475.3,1540.45 558.369,1604.7005 625.059,1648.0405 " fill="none" id="App-to-Helpers" style="stroke:#5F93CF;stroke-width:1.0;stroke-dasharray:7.0,7.0;"/><polygon fill="#5F93CF" points="630.09,1651.31,624.7232,1643.0518,625.8975,1648.5854,620.3639,1649.7598,630.09,1651.31" style="stroke:#5F93CF;stroke-width:1.0;"/><text fill="#000000" font-family="sans-serif" font-size="13" lengthAdjust="spacing" textLength="29" x="165.97" y="974.0284">uses</text></g><!--link CycleEngine to AppConfig--><g id="link_CycleEngine_AppConfig"><path codeLine="183" d="M905.24,1439.03 C914.04,1446.1 922.95,1452.85 931.95,1459.18 C1055.24,1545.82 1208.4604,1609.4278 1325.8204,1650.7378 " fill="none" id="CycleEngine-to-AppConfig" style="stroke:#5F93CF;stroke-width:1.0;stroke-dasharray:7.0,7.0;"/><polygon fill="#5F93CF" points="1331.48,1652.73,1324.3187,1645.9687,1326.7636,1651.0699,1321.6625,1653.5149,1331.48,1652.73" style="stroke:#5F93CF;stroke-width:1.0;"/><text fill="#000000" font-family="sans-serif" font-size="13" lengthAdjust="spacing" textLength="29" x="1002.84" y="1502.7484">uses</text></g><!--link CycleEngine to Helpers--><g id="link_CycleEngine_Helpers"><path codeLine="184" d="M719.95,1459.36 C719.95,1531.11 719.95,1598.06 719.95,1645.32 " fill="none" id="CycleEngine-to-Helpers" style="stroke:#5F93CF;stroke-width:1.0;stroke-dasharray:7.0,7.0;"/><polygon fill="#5F93CF" points="719.95,1651.32,723.95,1642.32,719.95,1646.32,715.95,1642.32,719.95,1651.32" style="stroke:#5F93CF;stroke-width:1.0;"/><text fill="#000000" font-family="sans-serif" font-size="13" lengthAdjust="spacing" textLength="29" x="720.95" y="1502.7484">uses</text></g><!--link AudioService to AppConfig--><g id="link_AudioService_AppConfig"><path codeLine="185" d="M962.22,921.45 C967.71,924.66 973.29,927.67 978.95,930.46 C1061.09,970.95 1323.2,897.77 1389.95,960.46 C1471.48,1037.03 1442.25,1348.43 1457.95,1459.18 C1461.48,1484.03 1464.4047,1504.3427 1468.1547,1530.0727 " fill="none" id="AudioService-to-AppConfig" style="stroke:#5F93CF;stroke-width:1.0;stroke-dasharray:7.0,7.0;"/><polygon fill="#5F93CF" points="1469.02,1536.01,1471.6802,1526.5272,1468.2989,1531.0623,1463.7638,1527.681,1469.02,1536.01" style="stroke:#5F93CF;stroke-width:1.0;"/><text fill="#000000" font-family="sans-serif" font-size="13" lengthAdjust="spacing" textLength="29" x="1458.95" y="1238.3884">uses</text></g><!--link UIController to Helpers--><g id="link_UIController_Helpers"><path codeLine="186" d="M1610.08,1437.54 C1601.39,1445.34 1592.34,1452.62 1582.95,1459.18 C1579.13,1461.85 1102.636,1596.0457 860.796,1664.0557 " fill="none" id="UIController-to-Helpers" style="stroke:#5F93CF;stroke-width:1.0;stroke-dasharray:7.0,7.0;"/><polygon fill="#5F93CF" points="855.02,1665.68,864.7668,1667.0942,859.8333,1664.3264,862.6011,1659.3929,855.02,1665.68" style="stroke:#5F93CF;stroke-width:1.0;"/><text fill="#000000" font-family="sans-serif" font-size="13" lengthAdjust="spacing" textLength="29" x="1474.97" y="1502.7484">uses</text></g><!--link UIController to AppConfig--><g id="link_UIController_AppConfig"><path codeLine="187" d="M1703.04,1447.19 C1695.64,1467.67 1687.01,1487.68 1676.95,1506.18 C1670.81,1517.47 1667.2771,1523.6743 1659.7971,1534.5643 " fill="none" id="UIController-to-AppConfig" style="stroke:#5F93CF;stroke-width:1.0;stroke-dasharray:7.0,7.0;"/><polygon fill="#5F93CF" points="1656.4,1539.51,1664.7927,1534.3561,1659.2309,1535.3886,1658.1984,1529.8267,1656.4,1539.51" style="stroke:#5F93CF;stroke-width:1.0;"/><text fill="#000000" font-family="sans-serif" font-size="13" lengthAdjust="spacing" textLength="29" x="1684.86" y="1502.7484">uses</text></g><!--link AudioService to Helpers--><g id="link_AudioService_Helpers"><path codeLine="188" d="M565.59,913.48 C521.61,963.77 487.39,1003.63 485.95,1007.46 C415.43,1195.43 411.15,1272.87 485.95,1459.18 C517.91,1538.78 584.8138,1603.3782 640.4638,1647.3882 " fill="none" id="AudioService-to-Helpers" style="stroke:#5F93CF;stroke-width:1.0;stroke-dasharray:7.0,7.0;"/><polygon fill="#5F93CF" points="645.17,1651.11,640.5919,1642.3898,641.2482,1648.0085,635.6295,1648.6647,645.17,1651.11" style="stroke:#5F93CF;stroke-width:1.0;"/><text fill="#000000" font-family="sans-serif" font-size="13" lengthAdjust="spacing" textLength="29" x="486.95" y="1238.3884">uses</text></g><!--link BarRenderer to AppConfig--><g id="link_BarRenderer_AppConfig"><path codeLine="189" d="M1486.33,811.26 C1489.81,857.91 1493.24,911.61 1494.95,960.46 C1501.86,1157.91 1500.2391,1379.0408 1497.7491,1529.7108 " fill="none" id="BarRenderer-to-AppConfig" style="stroke:#5F93CF;stroke-width:1.0;stroke-dasharray:7.0,7.0;"/><polygon fill="#5F93CF" points="1497.65,1535.71,1501.7982,1526.7773,1497.7326,1530.7107,1493.7993,1526.6451,1497.65,1535.71" style="stroke:#5F93CF;stroke-width:1.0;"/><text fill="#000000" font-family="sans-serif" font-size="13" lengthAdjust="spacing" textLength="29" x="1500.83" y="1238.3884">uses</text></g><!--link BarRenderer to Helpers--><g id="link_BarRenderer_Helpers"><path codeLine="190" d="M1470.61,811.28 C1461.26,870.67 1439.38,937.64 1389.95,977.46 C1321.06,1032.97 1057.91,947.4 992.95,1007.46 C843.78,1145.38 1006.42,1273.96 922.95,1459.18 C888.96,1534.62 829.3976,1601.393 782.3576,1647.223 " fill="none" id="BarRenderer-to-Helpers" style="stroke:#5F93CF;stroke-width:1.0;stroke-dasharray:7.0,7.0;"/><polygon fill="#5F93CF" points="778.06,1651.41,787.2977,1647.9945,781.6413,1647.9208,781.715,1642.2645,778.06,1651.41" style="stroke:#5F93CF;stroke-width:1.0;"/><text fill="#000000" font-family="sans-serif" font-size="13" lengthAdjust="spacing" textLength="29" x="993.95" y="1238.3884">uses</text></g><!--link BarRenderer to CycleEngine--><g id="link_BarRenderer_CycleEngine"><path codeLine="191" d="M1445.32,811.42 C1423.64,871.61 1387.99,939.27 1330.95,977.46 C1257.06,1026.93 1012.21,969.19 931.95,1007.46 C922.87,1011.79 919.0808,1013.5307 910.4108,1018.9007 " fill="none" id="BarRenderer-to-CycleEngine" style="stroke:#5F93CF;stroke-width:1.0;stroke-dasharray:7.0,7.0;"/><polygon fill="#5F93CF" points="905.31,1022.06,915.0675,1020.7215,909.5607,1019.4272,910.855,1013.9204,905.31,1022.06" style="stroke:#5F93CF;stroke-width:1.0;"/><text fill="#000000" font-family="sans-serif" font-size="13" lengthAdjust="spacing" textLength="29" x="1352.41" y="974.0284">uses</text></g><!--link AudioService to CycleEngine--><g id="link_AudioService_CycleEngine"><path codeLine="192" d="M744.36,930.93 C742.31,956.27 740.7151,975.9796 738.6751,1001.1296 " fill="none" id="AudioService-to-CycleEngine" style="stroke:#5F93CF;stroke-width:1.0;stroke-dasharray:7.0,7.0;"/><polygon fill="#5F93CF" points="738.19,1007.11,742.9045,998.4629,738.5942,1002.1264,734.9307,997.8161,738.19,1007.11" style="stroke:#5F93CF;stroke-width:1.0;"/><text fill="#000000" font-family="sans-serif" font-size="13" lengthAdjust="spacing" textLength="29" x="742.95" y="974.0284">uses</text></g><!--link CountdownController to CycleEngine--><g id="link_CountdownController_CycleEngine"><path codeLine="193" d="M450.63,753.73 C477.54,802.38 515.43,870.68 548.95,930.46 C562.87,955.28 574.5305,975.995 589.1005,1001.805 " fill="none" id="CountdownController-to-CycleEngine" style="stroke:#5F93CF;stroke-width:1.0;stroke-dasharray:7.0,7.0;"/><polygon fill="#5F93CF" points="592.05,1007.03,591.109,997.2262,589.592,1002.6759,584.1424,1001.1589,592.05,1007.03" style="stroke:#5F93CF;stroke-width:1.0;"/><text fill="#000000" font-family="sans-serif" font-size="13" lengthAdjust="spacing" textLength="29" x="573.07" y="974.0284">uses</text></g><!--link CycleEngine to GMN30--><g id="link_CycleEngine_GMN30"><path d="M854.31,1007 C895.8,966.37 944.4,943.87 996.45,968.96 C1088.01,1013.09 1152.05,1118.57 1183.89,1182.15 " fill="none" id="CycleEngine-GMN30" style="stroke:#5F93CF;stroke-width:1.0;stroke-dasharray:7.0,7.0;"/></g><!--SRC=[XLZTTk8s4BxdARJjnNgRX2NxrrFEDkSuu6ne0xX0sjtUS8Gj4ssCv4eooVRdVThds1VhIBB1iWt9HKBqVJCQIT-CHZoBIK8PGMD_D5aEfZVJ6VhsRVB3woZfF2kWUJ2OJeR-x5E9atSaIN2d8-yfox306nIbM4fVAK5NkIAZYBCv_PEWNfs2_keW-Bd4qVrQy9p50vvoKP_1ShY8YR3uFZW3-KBmXmRoJwTZv_2pRC1PGjVe_NkfiABHnKKnySdOd_qSp9RXOD57BD-iY40_ekzx5fml_DdYTGryzRO01zV1S3cQB8BPh_xDSZnluTnCfp_xru4_NCAAAdYlUrumnX3ktByA5fyQbDwvfKocetcm7DxE_CLeEgdHNblEPH24owjPyClo-lSA-kPDiH8_d0J-qapcc9-xkF-nxhx0WuzXYtKLR9Y-wnNmv7Ru8MYpxfuxX8Q7NlTDDRfXSENVtYmQ4NOhORHptdJVLcTg9_MwhuhPReUZwTAS_N9wTJKFcipUgxswhacQ4I5Rj0Nu9fiOAszxYZQKmI_y-A9qPLa95nkivYJoDX8W2Jd3rXRQyDZ3fuZjBNQp3hv4AGdOMkUZdUviYJD6y5Wwxi-Mv35hZE58qItnDRyL2HwpsdX6M0nnEIReR_YGfYwZOkhYTrY6bj97AyvJWbbf2H2P9eaagX5ffDSvOZ5vT84pkqDjIpvfhlYaik1sA6ZQcAc7kO13vQmE7exvv8cGmSB40STzYg2YGasxmsnDu92tdCOx4aHqb1BnJGQrDTI1ZAN7-4D8H7AApFHpXONI_zV4nl9uJRoOf0hsmN4d2CmPxbVbEIXdHd0pdgPy2t9kchf3PdiMF8oKbza0MpJivp7bSoAsDDgBE5AmRGQ1cgt8et9LjC5I4V41KzP7-lU4nyHbC4ubkSoJmWjyIkfIbD4TYHTqGqIxLFTRQ5nePasM4ByAKyoOziFMAJdEwIE- -amYvGY1obdEM2CVJg9S2C9Km-F9as4LZWcJkI3wG4B1Dx0Rxml_5uMulh1eoemZ3u8WCj-GKvJXN98ut9tM_Z0tMDo7i9W1ND0gvW_iaf1CUiHK7p1iCS7n5hE837OHUxLiSjY7LPcp3MZSrLPpHEePvlfGynJ4MGP6fGuqO7YLalYArKnujhTmeN9uGQFxTcSjcMCFkfuOPP9Qr4z0knEpMElMOQ-B_1lBFUe82WYJGjo93RgYyBAMflZBd2TA1-ihJrLdiEZ-JAnoDMilAgWtnHd1ZLGQxpBs4eiPr70Y86FAX4recWPf7rqlnZT1IZOWtLskYdiYZc6lZu6zTb1oeIYvmIjoO5gZXYCu5W8A_Z4FbCcCpdTksYX6pWieJ-qUr46eoD4yYx4YOxDGsQO6OVQvh9wdoANi-u0o9tMr552UAoVJ7Zb8wkd03irhA7SqTXCGzloEFtYoHJ6teqPWzj86UOqOv8QDn7oiXgClyQSefcm0QKvIgAsMPJyxDAE7IyKiuJ9NYhCQWMV7S9FWnmYVyqqsDx8ynZBXwfVEawIhX_WO9wSBleRCFSPPxOlLWUqh-gv3GhMHrFknit97S5mqKrwjmz1GOCxEbqqKDhAuz22z6cMSG27YMKRYTd163ACD-cbt0kruM2xLqos5Wpg5NHiwbx4oEps0CWvzukt8TRoYB0wsi6FIW_ui1edBHWB0utEVa2QN-jNclQn9klRsdOweG5OOcfHAtIthJvdt_ROIK91osdSIi1WMRMq73EDa53_L4EcUidOjKHcQrg7HrbSRYbOPKKPLhP1mPdHb-zq61i9gHKoALniUZLtiG9xL-CsEzMofatZ1hOXgqC7-19eytd0UwSudlQa2e8RdQ4PISx5AQEcHRWoufFh_ZfR8TsTdw9lpRnnfLCSTPLI1gZGSHosggEAEBY2wuTV_z0jEnouDiTkzsBrj-mYEKdQgZquDxxzOEK2esJiDVwi3vxfeyT306nuQSzGyL5kOLWTrmXFsrIKV2g65qtPl7w1s65S42Rg-KuWdEc0GMiWfKoX-3iL7VFsFe4nG5j4Cfrq0fm9QMAa4GOhd4gL45dh3KAe09mgjl_uBS4hiSr4hSalr7q3JvpZBKXePiIBFvDPBdKGlJTgyw7PW_KW7LG_DhMiVx1GOfNnD_yZ1UrxE1ZCmYBeFh3C4xnYeHZ2tj4y9QKRBfwP95crbHatpZ1I1nGYIcg5GVvluzLzOhOHc1M6bO4y8ahIOJB_l4yHp3PgIPAm6E8to56Ky5n7myThiGIRu6ln8dPM75bchqUKvcmgEy9P4w3UoiYpaXoExHlDYqZFejzUTu8nAixq6d1SrGPb-77ahaLE5Ll1cY5vOGlaYWQtaz_WEhbWxxZgpCRm4jPhlb22Jzulu7m00]--></g></svg>