<?xml version="1.0" encoding="us-ascii" standalone="no"?><svg xmlns="http://www.w3.org/2000/svg" xmlns:xlink="http://www.w3.org/1999/xlink" contentStyleType="text/css" height="1880px" preserveAspectRatio="none" style="width:1867px;height:1880px;background:#FFFFFF;" version="1.1" viewBox="0 0 1867 1880" width="1867px" zoomAndPan="magnify"><defs/><g><!--class AppConfig--><g id="elem_AppConfig"><rect codeLine="12" fill="#E6EFFA" height="336.9219" id="AppConfig" rx="2.5" ry="2.5" style="stroke:#5F93CF;stroke-width:0.5;" width="324" x="1311.13" y="1536.18"/><ellipse cx="1431.88" cy="1556.4905" fill="#ADD1B2" rx="11" ry="11" style="stroke:#181818;stroke-width:1.0;"/><path d="M1434.3531,1562.6336 Q1433.7721,1562.9324 1433.1329,1563.0819 Q1432.4938,1563.2313 1431.7882,1563.2313 Q1429.2814,1563.2313 1427.9615,1561.5794 Q1426.6417,1559.9276 1426.6417,1556.8065 Q1426.6417,1553.6771 1427.9615,1552.0252 Q1429.2814,1550.3734 1431.7882,1550.3734 Q1432.4938,1550.3734 1433.1412,1550.5228 Q1433.7887,1550.6722 1434.3531,1550.971 L1434.3531,1553.6937 Q1433.7223,1553.1126 1433.1288,1552.8428 Q1432.5353,1552.5731 1431.9044,1552.5731 Q1430.5597,1552.5731 1429.8749,1553.6397 Q1429.1901,1554.7064 1429.1901,1556.8065 Q1429.1901,1558.8983 1429.8749,1559.9649 Q1430.5597,1561.0316 1431.9044,1561.0316 Q1432.5353,1561.0316 1433.1288,1560.7618 Q1433.7223,1560.492 1434.3531,1559.911 Z " fill="#000000"/><text fill="#000000" font-family="sans-serif" font-size="12" font-style="italic" lengthAdjust="spacing" textLength="42" x="1468.38" y="1552.7816">&#171;static&#187;</text><text fill="#000000" font-family="sans-serif" font-size="14" lengthAdjust="spacing" textLength="74" x="1452.38" y="1568.848">AppConfig</text><line style="stroke:#5F93CF;stroke-width:0.5;" x1="1312.13" x2="1634.13" y1="1576.8011" y2="1576.8011"/><text fill="#000000" font-family="sans-serif" font-size="14" lengthAdjust="spacing" textLength="201" x="1317.13" y="1594.3362">+MARKER_PCT: number = 70</text><text fill="#000000" font-family="sans-serif" font-size="14" lengthAdjust="spacing" textLength="198" x="1317.13" y="1610.8245">+START3_PCT: number = 25</text><text fill="#000000" font-family="sans-serif" font-size="14" lengthAdjust="spacing" textLength="256" x="1317.13" y="1627.3128">+SCHED_INTERVAL_MS: number = 25</text><text fill="#000000" font-family="sans-serif" font-size="14" lengthAdjust="spacing" textLength="242" x="1317.13" y="1643.8011">+LOOKAHEAD_SEC: number = 0.15</text><text fill="#000000" font-family="sans-serif" font-size="14" lengthAdjust="spacing" textLength="241" x="1317.13" y="1660.2894">+MIN_SAFETY_SEC: number = 0.01</text><text fill="#000000" font-family="sans-serif" font-size="14" lengthAdjust="spacing" textLength="255" x="1317.13" y="1676.7777">+NOISE_DURATION_SEC: number = 3</text><text fill="#000000" font-family="sans-serif" font-size="14" lengthAdjust="spacing" textLength="219" x="1317.13" y="1693.2659">+BEEP_FREQ_HZ: number = 440</text><text fill="#000000" font-family="sans-serif" font-size="14" lengthAdjust="spacing" textLength="222" x="1317.13" y="1709.7542">+APNEA_MIN_SEC: number = 10</text><text fill="#000000" font-family="sans-serif" font-size="14" lengthAdjust="spacing" textLength="227" x="1317.13" y="1726.2425">+APNEA_MAX_SEC: number = 30</text><text fill="#000000" font-family="sans-serif" font-size="14" lengthAdjust="spacing" textLength="192" x="1317.13" y="1742.7308">+EXP_MIN_SEC: number = 0</text><text fill="#000000" font-family="sans-serif" font-size="14" lengthAdjust="spacing" textLength="215" x="1317.13" y="1759.2191">+EXP_MAX_SEC: number = 600</text><text fill="#000000" font-family="sans-serif" font-size="14" lengthAdjust="spacing" textLength="228" x="1317.13" y="1775.7073">+NUDGE_MIN_SEC: number = 0.1</text><text fill="#000000" font-family="sans-serif" font-size="14" lengthAdjust="spacing" textLength="233" x="1317.13" y="1792.1956">+NUDGE_MAX_SEC: number = 0.4</text><text fill="#000000" font-family="sans-serif" font-size="14" lengthAdjust="spacing" textLength="271" x="1317.13" y="1808.6839">+APNEA_DEFAULT_SEC: number = 30.0</text><text fill="#000000" font-family="sans-serif" font-size="14" lengthAdjust="spacing" textLength="241" x="1317.13" y="1825.1722">+EXP_DEFAULT_SEC: number = 4.5</text><text fill="#000000" font-family="sans-serif" font-size="14" lengthAdjust="spacing" textLength="264" x="1317.13" y="1841.6605">+NUDGE_DEFAULT_SEC: number = 0.2</text><text fill="#000000" font-family="sans-serif" font-size="14" lengthAdjust="spacing" textLength="312" x="1317.13" y="1858.1487">+AUDIO_START_OFFSET_SEC: number = 0.02</text><line style="stroke:#5F93CF;stroke-width:0.5;" x1="1312.13" x2="1634.13" y1="1865.1019" y2="1865.1019"/></g><!--class Helpers--><g id="elem_Helpers"><rect codeLine="32" fill="#E6EFFA" height="106.0859" id="Helpers" rx="2.5" ry="2.5" style="stroke:#5F93CF;stroke-width:0.5;" width="270" x="644.13" y="1651.6"/><ellipse cx="748.88" cy="1671.9105" fill="#ADD1B2" rx="11" ry="11" style="stroke:#181818;stroke-width:1.0;"/><path d="M751.3531,1678.0536 Q750.7721,1678.3524 750.1329,1678.5019 Q749.4938,1678.6513 748.7882,1678.6513 Q746.2814,1678.6513 744.9615,1676.9994 Q743.6417,1675.3476 743.6417,1672.2265 Q743.6417,1669.0971 744.9615,1667.4452 Q746.2814,1665.7934 748.7882,1665.7934 Q749.4938,1665.7934 750.1412,1665.9428 Q750.7887,1666.0922 751.3531,1666.391 L751.3531,1669.1137 Q750.7223,1668.5326 750.1288,1668.2628 Q749.5353,1667.9931 748.9044,1667.9931 Q747.5597,1667.9931 746.8749,1669.0597 Q746.1901,1670.1264 746.1901,1672.2265 Q746.1901,1674.3183 746.8749,1675.3849 Q747.5597,1676.4516 748.9044,1676.4516 Q749.5353,1676.4516 750.1288,1676.1818 Q750.7223,1675.912 751.3531,1675.331 Z " fill="#000000"/><text fill="#000000" font-family="sans-serif" font-size="12" font-style="italic" lengthAdjust="spacing" textLength="42" x="774.38" y="1668.2016">&#171;static&#187;</text><text fill="#000000" font-family="sans-serif" font-size="14" lengthAdjust="spacing" textLength="52" x="769.38" y="1684.268">Helpers</text><line style="stroke:#5F93CF;stroke-width:0.5;" x1="645.13" x2="913.13" y1="1692.2211" y2="1692.2211"/><line style="stroke:#5F93CF;stroke-width:0.5;" x1="645.13" x2="913.13" y1="1700.2211" y2="1700.2211"/><text fill="#000000" font-family="sans-serif" font-size="14" lengthAdjust="spacing" textLength="258" x="650.13" y="1717.7563">+clampNumber(v, min, max): number</text><text fill="#000000" font-family="sans-serif" font-size="14" lengthAdjust="spacing" textLength="158" x="650.13" y="1734.2445">+formatSec(ms): string</text><text fill="#000000" font-family="sans-serif" font-size="14" lengthAdjust="spacing" textLength="139" x="650.13" y="1750.7328">+mod(a, n): number</text></g><!--class CycleEngine--><g id="elem_CycleEngine"><rect codeLine="38" fill="#E6EFFA" height="451.7188" id="CycleEngine" rx="2.5" ry="2.5" style="stroke:#5F93CF;stroke-width:0.5;" width="370" x="594.13" y="1007.46"/><ellipse cx="733.38" cy="1023.46" fill="#ADD1B2" rx="11" ry="11" style="stroke:#181818;stroke-width:1.0;"/><path d="M735.8531,1029.6031 Q735.2721,1029.9019 734.6329,1030.0513 Q733.9938,1030.2007 733.2882,1030.2007 Q730.7814,1030.2007 729.4615,1028.5489 Q728.1417,1026.897 728.1417,1023.7759 Q728.1417,1020.6465 729.4615,1018.9947 Q730.7814,1017.3428 733.2882,1017.3428 Q733.9938,1017.3428 734.6412,1017.4922 Q735.2887,1017.6416 735.8531,1017.9405 L735.8531,1020.6631 Q735.2223,1020.0821 734.6288,1019.8123 Q734.0353,1019.5425 733.4044,1019.5425 Q732.0597,1019.5425 731.3749,1020.6092 Q730.6901,1021.6758 730.6901,1023.7759 Q730.6901,1025.8677 731.3749,1026.9344 Q732.0597,1028.001 733.4044,1028.001 Q734.0353,1028.001 734.6288,1027.7312 Q735.2223,1027.4615 735.8531,1026.8804 Z " fill="#000000"/><text fill="#000000" font-family="sans-serif" font-size="14" lengthAdjust="spacing" textLength="83" x="753.88" y="1028.751">CycleEngine</text><line style="stroke:#5F93CF;stroke-width:0.5;" x1="595.13" x2="963.13" y1="1039.46" y2="1039.46"/><text fill="#000000" font-family="sans-serif" font-size="14" lengthAdjust="spacing" textLength="138" x="600.13" y="1056.9952">-_apneaMs: number</text><text fill="#000000" font-family="sans-serif" font-size="14" lengthAdjust="spacing" textLength="122" x="600.13" y="1073.4834">-_expMs: number</text><text fill="#000000" font-family="sans-serif" font-size="14" lengthAdjust="spacing" textLength="160" x="600.13" y="1089.9717">-_activeApnea: number</text><text fill="#000000" font-family="sans-serif" font-size="14" lengthAdjust="spacing" textLength="142" x="600.13" y="1106.46">-_activeExp: number</text><text fill="#000000" font-family="sans-serif" font-size="14" lengthAdjust="spacing" textLength="217" x="600.13" y="1122.9483">-_pendingApnea: number | null</text><text fill="#000000" font-family="sans-serif" font-size="14" lengthAdjust="spacing" textLength="199" x="600.13" y="1139.4366">-_pendingExp: number | null</text><text fill="#000000" font-family="sans-serif" font-size="14" lengthAdjust="spacing" textLength="159" x="600.13" y="1155.9248">-_hasPending: boolean</text><text fill="#000000" font-family="sans-serif" font-size="14" lengthAdjust="spacing" textLength="178" x="600.13" y="1172.4131">-_phaseOffsetMs: number</text><text fill="#000000" font-family="sans-serif" font-size="14" lengthAdjust="spacing" textLength="149" x="600.13" y="1188.9014">-_cycleIndex: number</text><line style="stroke:#5F93CF;stroke-width:1.0;" x1="595.13" x2="963.13" y1="1195.8545" y2="1195.8545"/><text fill="#000000" font-family="sans-serif" font-size="14" lengthAdjust="spacing" textLength="134" x="600.13" y="1213.3897">+apneaMs: number</text><text fill="#000000" font-family="sans-serif" font-size="14" lengthAdjust="spacing" textLength="118" x="600.13" y="1229.878">+expMs: number</text><text fill="#000000" font-family="sans-serif" font-size="14" lengthAdjust="spacing" textLength="175" x="600.13" y="1246.3663">+activeApneaMs: number</text><text fill="#000000" font-family="sans-serif" font-size="14" lengthAdjust="spacing" textLength="157" x="600.13" y="1262.8545">+activeExpMs: number</text><text fill="#000000" font-family="sans-serif" font-size="14" lengthAdjust="spacing" textLength="185" x="600.13" y="1279.3428">+cycleDurationMs: number</text><text fill="#000000" font-family="sans-serif" font-size="14" lengthAdjust="spacing" textLength="174" x="600.13" y="1295.8311">+phaseOffsetMs: number</text><text fill="#000000" font-family="sans-serif" font-size="14" lengthAdjust="spacing" textLength="145" x="600.13" y="1312.3194">+cycleIndex: number</text><line style="stroke:#5F93CF;stroke-width:1.0;" x1="595.13" x2="963.13" y1="1319.2725" y2="1319.2725"/><text fill="#000000" font-family="sans-serif" font-size="14" lengthAdjust="spacing" textLength="219" x="600.13" y="1336.8077">+setApnea(ms, isRunning): void</text><text fill="#000000" font-family="sans-serif" font-size="14" lengthAdjust="spacing" textLength="201" x="600.13" y="1353.2959">+setExp(ms, isRunning): void</text><text fill="#000000" font-family="sans-serif" font-size="14" lengthAdjust="spacing" textLength="358" x="600.13" y="1369.7842">+computePhaseMs(nowPerf, cycleStartPerf): number</text><text fill="#000000" font-family="sans-serif" font-size="14" lengthAdjust="spacing" textLength="155" x="600.13" y="1386.2725">+nudge(deltaMs): void</text><text fill="#000000" font-family="sans-serif" font-size="14" lengthAdjust="spacing" textLength="173" x="600.13" y="1402.7608">+resetPhaseOffset(): void</text><text fill="#000000" font-family="sans-serif" font-size="14" lengthAdjust="spacing" textLength="168" x="600.13" y="1419.2491">+onCycleRollover(): void</text><text fill="#000000" font-family="sans-serif" font-size="14" lengthAdjust="spacing" textLength="92" x="600.13" y="1435.7373">+reset(): void</text><text fill="#000000" font-family="sans-serif" font-size="14" lengthAdjust="spacing" textLength="222" x="600.13" y="1452.2256">+phaseToPct(phaseMs): number</text></g><!--class AudioService--><g id="elem_AudioService"><rect codeLine="67" fill="#E6EFFA" height="484.6953" id="AudioService" rx="2.5" ry="2.5" style="stroke:#5F93CF;stroke-width:0.5;" width="396" x="568.13" y="445.76"/><ellipse cx="717.38" cy="461.76" fill="#ADD1B2" rx="11" ry="11" style="stroke:#181818;stroke-width:1.0;"/><path d="M719.8531,467.9031 Q719.2721,468.2019 718.6329,468.3513 Q717.9938,468.5007 717.2882,468.5007 Q714.7814,468.5007 713.4615,466.8489 Q712.1417,465.197 712.1417,462.0759 Q712.1417,458.9465 713.4615,457.2947 Q714.7814,455.6428 717.2882,455.6428 Q717.9938,455.6428 718.6412,455.7922 Q719.2887,455.9416 719.8531,456.2405 L719.8531,458.9631 Q719.2223,458.3821 718.6288,458.1123 Q718.0353,457.8425 717.4044,457.8425 Q716.0597,457.8425 715.3749,458.9092 Q714.6901,459.9758 714.6901,462.0759 Q714.6901,464.1677 715.3749,465.2344 Q716.0597,466.301 717.4044,466.301 Q718.0353,466.301 718.6288,466.0312 Q719.2223,465.7615 719.8531,465.1804 Z " fill="#000000"/><text fill="#000000" font-family="sans-serif" font-size="14" lengthAdjust="spacing" textLength="89" x="737.88" y="467.051">AudioService</text><line style="stroke:#5F93CF;stroke-width:0.5;" x1="569.13" x2="963.13" y1="477.76" y2="477.76"/><text fill="#000000" font-family="sans-serif" font-size="14" lengthAdjust="spacing" textLength="179" x="574.13" y="495.2952">-_ctx: AudioContext | null</text><text fill="#000000" font-family="sans-serif" font-size="14" lengthAdjust="spacing" textLength="207" x="574.13" y="511.7834">-_masterGain: GainNode | null</text><text fill="#000000" font-family="sans-serif" font-size="14" lengthAdjust="spacing" textLength="203" x="574.13" y="528.2717">-_noiseBuf: AudioBuffer | null</text><text fill="#000000" font-family="sans-serif" font-size="14" lengthAdjust="spacing" textLength="196" x="574.13" y="544.76">-_schedTimer: number | null</text><text fill="#000000" font-family="sans-serif" font-size="14" lengthAdjust="spacing" textLength="217" x="574.13" y="561.2483">-_cycleStartAudioTime: number</text><text fill="#000000" font-family="sans-serif" font-size="14" lengthAdjust="spacing" textLength="233" x="574.13" y="577.7366">-_lastPlannedTingleTime: number</text><text fill="#000000" font-family="sans-serif" font-size="14" lengthAdjust="spacing" textLength="144" x="574.13" y="594.2248">-_lastPlanned: object</text><line style="stroke:#5F93CF;stroke-width:1.0;" x1="569.13" x2="963.13" y1="601.178" y2="601.178"/><text fill="#000000" font-family="sans-serif" font-size="14" lengthAdjust="spacing" textLength="144" x="574.13" y="618.7131">+isRunning: boolean</text><text fill="#000000" font-family="sans-serif" font-size="14" lengthAdjust="spacing" textLength="157" x="574.13" y="635.2014">+currentTime: number</text><text fill="#000000" font-family="sans-serif" font-size="14" lengthAdjust="spacing" textLength="213" x="574.13" y="651.6897">+cycleStartAudioTime: number</text><line style="stroke:#5F93CF;stroke-width:1.0;" x1="569.13" x2="963.13" y1="658.6428" y2="658.6428"/><text fill="#000000" font-family="sans-serif" font-size="14" lengthAdjust="spacing" textLength="209" x="574.13" y="676.178">+ensure(): Promise&lt;boolean&gt;</text><text fill="#000000" font-family="sans-serif" font-size="14" lengthAdjust="spacing" textLength="322" x="574.13" y="692.6663">+syncOnStart(isResume, pausedPhaseMs): void</text><text fill="#000000" font-family="sans-serif" font-size="14" lengthAdjust="spacing" textLength="356" x="574.13" y="709.1545">+markPastCountdownBeeps(engine, phaseMs): void</text><text fill="#000000" font-family="sans-serif" font-size="14" lengthAdjust="spacing" textLength="294" x="574.13" y="725.6428">+advanceCycleStart(cycleDurationMs): void</text><text fill="#000000" font-family="sans-serif" font-size="14" lengthAdjust="spacing" textLength="155" x="574.13" y="742.1311">+nudge(deltaMs): void</text><text fill="#000000" font-family="sans-serif" font-size="14" lengthAdjust="spacing" textLength="111" x="574.13" y="758.6194">+unmute(): void</text><text fill="#000000" font-family="sans-serif" font-size="14" lengthAdjust="spacing" textLength="93" x="574.13" y="775.1077">+mute(): void</text><text fill="#000000" font-family="sans-serif" font-size="14" lengthAdjust="spacing" textLength="328" x="574.13" y="791.5959">+startScheduler(engine, isBeepEnabledFn): void</text><text fill="#000000" font-family="sans-serif" font-size="14" lengthAdjust="spacing" textLength="156" x="574.13" y="808.0842">+stopScheduler(): void</text><text fill="#000000" font-family="sans-serif" font-size="14" lengthAdjust="spacing" textLength="307" x="574.13" y="824.5725">+schedulerTick(engine, isBeepEnabled): void</text><text fill="#000000" font-family="sans-serif" font-size="14" lengthAdjust="spacing" textLength="147" x="574.13" y="841.0608">+resetPlanned(): void</text><text fill="#000000" font-family="sans-serif" font-size="14" lengthAdjust="spacing" textLength="313" x="574.13" y="857.5491">+recomputePlannedAfterNudge(engine): void</text><text fill="#000000" font-family="sans-serif" font-size="14" lengthAdjust="spacing" textLength="211" x="574.13" y="874.0373">+getPhaseMs(engine): number</text><text fill="#000000" font-family="sans-serif" font-size="14" lengthAdjust="spacing" textLength="216" x="574.13" y="890.5256">-_getNoiseBuffer(): AudioBuffer</text><text fill="#000000" font-family="sans-serif" font-size="14" lengthAdjust="spacing" textLength="170" x="574.13" y="907.0139">-_playSoftBeepAt(t): void</text><text fill="#000000" font-family="sans-serif" font-size="14" lengthAdjust="spacing" textLength="384" x="574.13" y="923.5022">-_playCycleStartTingleAt(tStartAudio, durationSec): void</text></g><!--class BarRenderer--><g id="elem_BarRenderer"><rect codeLine="98" fill="#E6EFFA" height="245.8594" id="BarRenderer" rx="2.5" ry="2.5" style="stroke:#5F93CF;stroke-width:0.5;" width="231" x="1362.63" y="565.18"/><ellipse cx="1431.38" cy="581.18" fill="#ADD1B2" rx="11" ry="11" style="stroke:#181818;stroke-width:1.0;"/><path d="M1433.8531,587.3231 Q1433.2721,587.6219 1432.6329,587.7713 Q1431.9938,587.9207 1431.2882,587.9207 Q1428.7814,587.9207 1427.4615,586.2689 Q1426.1417,584.617 1426.1417,581.4959 Q1426.1417,578.3665 1427.4615,576.7147 Q1428.7814,575.0628 1431.2882,575.0628 Q1431.9938,575.0628 1432.6412,575.2122 Q1433.2887,575.3616 1433.8531,575.6605 L1433.8531,578.3831 Q1433.2223,577.8021 1432.6288,577.5323 Q1432.0353,577.2625 1431.4044,577.2625 Q1430.0597,577.2625 1429.3749,578.3292 Q1428.6901,579.3958 1428.6901,581.4959 Q1428.6901,583.5877 1429.3749,584.6544 Q1430.0597,585.721 1431.4044,585.721 Q1432.0353,585.721 1432.6288,585.4512 Q1433.2223,585.1815 1433.8531,584.6004 Z " fill="#000000"/><text fill="#000000" font-family="sans-serif" font-size="14" lengthAdjust="spacing" textLength="85" x="1451.88" y="586.471">BarRenderer</text><line style="stroke:#5F93CF;stroke-width:0.5;" x1="1363.63" x2="1592.63" y1="597.18" y2="597.18"/><text fill="#000000" font-family="sans-serif" font-size="14" lengthAdjust="spacing" textLength="145" x="1368.63" y="614.7152">-_fillEl: HTMLElement</text><text fill="#000000" font-family="sans-serif" font-size="14" lengthAdjust="spacing" textLength="177" x="1368.63" y="631.2034">-_markerEl: HTMLElement</text><text fill="#000000" font-family="sans-serif" font-size="14" lengthAdjust="spacing" textLength="186" x="1368.63" y="647.6917">-_marker3El: HTMLElement</text><text fill="#000000" font-family="sans-serif" font-size="14" lengthAdjust="spacing" textLength="186" x="1368.63" y="664.18">-_marker0El: HTMLElement</text><text fill="#000000" font-family="sans-serif" font-size="14" lengthAdjust="spacing" textLength="203" x="1368.63" y="680.6683">-_sortieLabelEl: HTMLElement</text><text fill="#000000" font-family="sans-serif" font-size="14" lengthAdjust="spacing" textLength="195" x="1368.63" y="697.1566">-_startLabelEl: HTMLElement</text><text fill="#000000" font-family="sans-serif" font-size="14" lengthAdjust="spacing" textLength="211" x="1368.63" y="713.6448">-_arriveeLabelEl: HTMLElement</text><text fill="#000000" font-family="sans-serif" font-size="14" lengthAdjust="spacing" textLength="217" x="1368.63" y="730.1331">-_inspiStartLabel: HTMLElement</text><text fill="#000000" font-family="sans-serif" font-size="14" lengthAdjust="spacing" textLength="192" x="1368.63" y="746.6214">-_cycleTextEl: HTMLElement</text><text fill="#000000" font-family="sans-serif" font-size="14" lengthAdjust="spacing" textLength="164" x="1368.63" y="763.1097">-_tTextEl: HTMLElement</text><line style="stroke:#5F93CF;stroke-width:1.0;" x1="1363.63" x2="1592.63" y1="770.0628" y2="770.0628"/><text fill="#000000" font-family="sans-serif" font-size="14" lengthAdjust="spacing" textLength="208" x="1368.63" y="787.598">+updateMarkers(engine): void</text><text fill="#000000" font-family="sans-serif" font-size="14" lengthAdjust="spacing" textLength="219" x="1368.63" y="804.0862">+render(phaseMs, engine): void</text></g><!--class CountdownController--><g id="elem_CountdownController"><rect codeLine="114" fill="#E6EFFA" height="130.4414" id="CountdownController" rx="2.5" ry="2.5" style="stroke:#5F93CF;stroke-width:0.5;" width="233" x="300.63" y="622.89"/><ellipse cx="338.58" cy="638.89" fill="#ADD1B2" rx="11" ry="11" style="stroke:#181818;stroke-width:1.0;"/><path d="M341.0531,645.0331 Q340.4721,645.3319 339.8329,645.4813 Q339.1938,645.6307 338.4882,645.6307 Q335.9814,645.6307 334.6615,643.9789 Q333.3417,642.327 333.3417,639.2059 Q333.3417,636.0765 334.6615,634.4247 Q335.9814,632.7728 338.4882,632.7728 Q339.1938,632.7728 339.8412,632.9222 Q340.4887,633.0716 341.0531,633.3705 L341.0531,636.0931 Q340.4223,635.5121 339.8288,635.2423 Q339.2353,634.9725 338.6044,634.9725 Q337.2597,634.9725 336.5749,636.0392 Q335.8901,637.1058 335.8901,639.2059 Q335.8901,641.2977 336.5749,642.3644 Q337.2597,643.431 338.6044,643.431 Q339.2353,643.431 339.8288,643.1612 Q340.4223,642.8915 341.0531,642.3104 Z " fill="#000000"/><text fill="#000000" font-family="sans-serif" font-size="14" lengthAdjust="spacing" textLength="150" x="357.68" y="644.181">CountdownController</text><line style="stroke:#5F93CF;stroke-width:0.5;" x1="301.63" x2="532.63" y1="654.89" y2="654.89"/><text fill="#000000" font-family="sans-serif" font-size="14" lengthAdjust="spacing" textLength="128" x="306.63" y="672.4252">-_el: HTMLElement</text><text fill="#000000" font-family="sans-serif" font-size="14" lengthAdjust="spacing" textLength="159" x="306.63" y="688.9134">-_numEl: HTMLElement</text><line style="stroke:#5F93CF;stroke-width:1.0;" x1="301.63" x2="532.63" y1="695.8666" y2="695.8666"/><text fill="#000000" font-family="sans-serif" font-size="14" lengthAdjust="spacing" textLength="221" x="306.63" y="713.4017">+update(phaseMs, engine): void</text><text fill="#000000" font-family="sans-serif" font-size="14" lengthAdjust="spacing" textLength="88" x="306.63" y="729.89">+hide(): void</text><text fill="#000000" font-family="sans-serif" font-size="14" lengthAdjust="spacing" textLength="120" x="306.63" y="746.3783">-_show(sec): void</text></g><!--class UIController--><g id="elem_UIController"><rect codeLine="123" fill="#E6EFFA" height="427.2305" id="UIController" rx="2.5" ry="2.5" style="stroke:#5F93CF;stroke-width:0.5;" width="271" x="1589.63" y="1019.7"/><ellipse cx="1678.88" cy="1035.7" fill="#ADD1B2" rx="11" ry="11" style="stroke:#181818;stroke-width:1.0;"/><path d="M1681.3531,1041.8431 Q1680.7721,1042.1419 1680.1329,1042.2913 Q1679.4938,1042.4407 1678.7882,1042.4407 Q1676.2814,1042.4407 1674.9615,1040.7889 Q1673.6417,1039.137 1673.6417,1036.0159 Q1673.6417,1032.8865 1674.9615,1031.2347 Q1676.2814,1029.5828 1678.7882,1029.5828 Q1679.4938,1029.5828 1680.1412,1029.7322 Q1680.7887,1029.8816 1681.3531,1030.1805 L1681.3531,1032.9031 Q1680.7223,1032.3221 1680.1288,1032.0523 Q1679.5353,1031.7825 1678.9044,1031.7825 Q1677.5597,1031.7825 1676.8749,1032.8492 Q1676.1901,1033.9158 1676.1901,1036.0159 Q1676.1901,1038.1077 1676.8749,1039.1744 Q1677.5597,1040.241 1678.9044,1040.241 Q1679.5353,1040.241 1680.1288,1039.9712 Q1680.7223,1039.7015 1681.3531,1039.1204 Z " fill="#000000"/><text fill="#000000" font-family="sans-serif" font-size="14" lengthAdjust="spacing" textLength="84" x="1699.38" y="1040.991">UIController</text><line style="stroke:#5F93CF;stroke-width:0.5;" x1="1590.63" x2="1859.63" y1="1051.7" y2="1051.7"/><text fill="#000000" font-family="sans-serif" font-size="14" lengthAdjust="spacing" textLength="249" x="1595.63" y="1069.2352">+apneaSecInput: HTMLInputElement</text><text fill="#000000" font-family="sans-serif" font-size="14" lengthAdjust="spacing" textLength="233" x="1595.63" y="1085.7234">+expSecInput: HTMLInputElement</text><text fill="#000000" font-family="sans-serif" font-size="14" lengthAdjust="spacing" textLength="259" x="1595.63" y="1102.2117">+nudgeSecSelect: HTMLSelectElement</text><text fill="#000000" font-family="sans-serif" font-size="14" lengthAdjust="spacing" textLength="210" x="1595.63" y="1118.7">+startBtn: HTMLButtonElement</text><text fill="#000000" font-family="sans-serif" font-size="14" lengthAdjust="spacing" textLength="209" x="1595.63" y="1135.1883">+stopBtn: HTMLButtonElement</text><text fill="#000000" font-family="sans-serif" font-size="14" lengthAdjust="spacing" textLength="213" x="1595.63" y="1151.6766">+resetBtn: HTMLButtonElement</text><text fill="#000000" font-family="sans-serif" font-size="14" lengthAdjust="spacing" textLength="254" x="1595.63" y="1168.1648">+jumpSortieBtn: HTMLButtonElement</text><text fill="#000000" font-family="sans-serif" font-size="14" lengthAdjust="spacing" textLength="254" x="1595.63" y="1184.6531">+nudgeBackBtn: HTMLButtonElement</text><text fill="#000000" font-family="sans-serif" font-size="14" lengthAdjust="spacing" textLength="251" x="1595.63" y="1201.1414">+nudgeFwdBtn: HTMLButtonElement</text><text fill="#000000" font-family="sans-serif" font-size="14" lengthAdjust="spacing" textLength="240" x="1595.63" y="1217.6297">+uiToggleBtn: HTMLButtonElement</text><text fill="#000000" font-family="sans-serif" font-size="14" lengthAdjust="spacing" textLength="237" x="1595.63" y="1234.118">+beepEnabled: HTMLInputElement</text><text fill="#000000" font-family="sans-serif" font-size="14" lengthAdjust="spacing" textLength="200" x="1595.63" y="1250.6062">-_phaseTextEl: HTMLElement</text><text fill="#000000" font-family="sans-serif" font-size="14" lengthAdjust="spacing" textLength="136" x="1595.63" y="1267.0945">+nudgeMs: number</text><line style="stroke:#5F93CF;stroke-width:1.0;" x1="1590.63" x2="1859.63" y1="1274.0477" y2="1274.0477"/><text fill="#000000" font-family="sans-serif" font-size="14" lengthAdjust="spacing" textLength="177" x="1595.63" y="1291.5828">+readApneaMs(): number</text><text fill="#000000" font-family="sans-serif" font-size="14" lengthAdjust="spacing" textLength="199" x="1595.63" y="1308.0711">+readExpSecAsMs(): number</text><text fill="#000000" font-family="sans-serif" font-size="14" lengthAdjust="spacing" textLength="170" x="1595.63" y="1324.5594">+setRunningState(): void</text><text fill="#000000" font-family="sans-serif" font-size="14" lengthAdjust="spacing" textLength="169" x="1595.63" y="1341.0477">+setStoppedState(): void</text><text fill="#000000" font-family="sans-serif" font-size="14" lengthAdjust="spacing" textLength="149" x="1595.63" y="1357.5359">+setResetState(): void</text><text fill="#000000" font-family="sans-serif" font-size="14" lengthAdjust="spacing" textLength="187" x="1595.63" y="1374.0242">+setJumpSortieState(): void</text><text fill="#000000" font-family="sans-serif" font-size="14" lengthAdjust="spacing" textLength="176" x="1595.63" y="1390.5125">+setPhaseText(text): void</text><text fill="#000000" font-family="sans-serif" font-size="14" lengthAdjust="spacing" textLength="184" x="1595.63" y="1407.0008">+isBeepEnabled(): boolean</text><text fill="#000000" font-family="sans-serif" font-size="14" lengthAdjust="spacing" textLength="177" x="1595.63" y="1423.4891">+toggleCompactUI(): void</text><text fill="#000000" font-family="sans-serif" font-size="14" lengthAdjust="spacing" textLength="193" x="1595.63" y="1439.9773">+bindEvents(handlers): void</text></g><!--class App--><g id="elem_App"><rect codeLine="150" fill="#E6EFFA" height="377.7656" id="App" rx="2.5" ry="2.5" style="stroke:#5F93CF;stroke-width:0.5;" width="262" x="1043.13" y="7"/><ellipse cx="1155.88" cy="23" fill="#ADD1B2" rx="11" ry="11" style="stroke:#181818;stroke-width:1.0;"/><path d="M1158.3531,29.1431 Q1157.7721,29.4419 1157.1329,29.5913 Q1156.4938,29.7407 1155.7882,29.7407 Q1153.2814,29.7407 1151.9615,28.0889 Q1150.6417,26.437 1150.6417,23.3159 Q1150.6417,20.1865 1151.9615,18.5347 Q1153.2814,16.8828 1155.7882,16.8828 Q1156.4938,16.8828 1157.1412,17.0322 Q1157.7887,17.1816 1158.3531,17.4805 L1158.3531,20.2031 Q1157.7223,19.6221 1157.1288,19.3523 Q1156.5353,19.0825 1155.9044,19.0825 Q1154.5597,19.0825 1153.8749,20.1492 Q1153.1901,21.2158 1153.1901,23.3159 Q1153.1901,25.4077 1153.8749,26.4744 Q1154.5597,27.541 1155.9044,27.541 Q1156.5353,27.541 1157.1288,27.2712 Q1157.7223,27.0015 1158.3531,26.4204 Z " fill="#000000"/><text fill="#000000" font-family="sans-serif" font-size="14" lengthAdjust="spacing" textLength="28" x="1176.38" y="28.291">App</text><line style="stroke:#5F93CF;stroke-width:0.5;" x1="1044.13" x2="1304.13" y1="39" y2="39"/><text fill="#000000" font-family="sans-serif" font-size="14" lengthAdjust="spacing" textLength="153" x="1049.13" y="56.5352">-_engine: CycleEngine</text><text fill="#000000" font-family="sans-serif" font-size="14" lengthAdjust="spacing" textLength="151" x="1049.13" y="73.0234">-_audio: AudioService</text><text fill="#000000" font-family="sans-serif" font-size="14" lengthAdjust="spacing" textLength="131" x="1049.13" y="89.5117">-_bar: BarRenderer</text><text fill="#000000" font-family="sans-serif" font-size="14" lengthAdjust="spacing" textLength="250" x="1049.13" y="106">-_countdown: CountdownController</text><text fill="#000000" font-family="sans-serif" font-size="14" lengthAdjust="spacing" textLength="120" x="1049.13" y="122.4883">-_ui: UIController</text><text fill="#000000" font-family="sans-serif" font-size="14" lengthAdjust="spacing" textLength="134" x="1049.13" y="138.9766">-_running: boolean</text><text fill="#000000" font-family="sans-serif" font-size="14" lengthAdjust="spacing" textLength="148" x="1049.13" y="155.4648">-_rafId: number | null</text><text fill="#000000" font-family="sans-serif" font-size="14" lengthAdjust="spacing" textLength="169" x="1049.13" y="171.9531">-_cycleStartPerf: number</text><text fill="#000000" font-family="sans-serif" font-size="14" lengthAdjust="spacing" textLength="139" x="1049.13" y="188.4414">-_isPaused: boolean</text><text fill="#000000" font-family="sans-serif" font-size="14" lengthAdjust="spacing" textLength="186" x="1049.13" y="204.9297">-_pausedPhaseMs: number</text><line style="stroke:#5F93CF;stroke-width:1.0;" x1="1044.13" x2="1304.13" y1="211.8828" y2="211.8828"/><text fill="#000000" font-family="sans-serif" font-size="14" lengthAdjust="spacing" textLength="80" x="1049.13" y="229.418">+init(): void</text><text fill="#000000" font-family="sans-serif" font-size="14" lengthAdjust="spacing" textLength="177" x="1049.13" y="245.9063">-_onApneaChange(): void</text><text fill="#000000" font-family="sans-serif" font-size="14" lengthAdjust="spacing" textLength="159" x="1049.13" y="262.3945">-_onExpChange(): void</text><text fill="#000000" font-family="sans-serif" font-size="14" lengthAdjust="spacing" textLength="170" x="1049.13" y="278.8828">-_start(): Promise&lt;void&gt;</text><text fill="#000000" font-family="sans-serif" font-size="14" lengthAdjust="spacing" textLength="92" x="1049.13" y="295.3711">-_stop(): void</text><text fill="#000000" font-family="sans-serif" font-size="14" lengthAdjust="spacing" textLength="96" x="1049.13" y="311.8594">-_reset(): void</text><text fill="#000000" font-family="sans-serif" font-size="14" lengthAdjust="spacing" textLength="155" x="1049.13" y="328.3477">-_jumpToSortie(): void</text><text fill="#000000" font-family="sans-serif" font-size="14" lengthAdjust="spacing" textLength="159" x="1049.13" y="344.8359">-_nudge(deltaMs): void</text><text fill="#000000" font-family="sans-serif" font-size="14" lengthAdjust="spacing" textLength="93" x="1049.13" y="361.3242">-_loop(): void</text><text fill="#000000" font-family="sans-serif" font-size="14" lengthAdjust="spacing" textLength="139" x="1049.13" y="377.8125">-_cancelLoop(): void</text></g><g id="elem_GMN27"><path d="M1340.63,160.26 L1340.63,191.88 L1305.46,195.88 L1340.63,199.88 L1340.63,231.5022 A0,0 0 0 0 1340.63,231.5022 L1557.63,231.5022 A0,0 0 0 0 1557.63,231.5022 L1557.63,170.26 L1547.63,160.26 L1340.63,160.26 A0,0 0 0 0 1340.63,160.26 " fill="#FEFFDD" style="stroke:#181818;stroke-width:0.5;"/><path d="M1547.63,160.26 L1547.63,170.26 L1557.63,170.26 L1547.63,160.26 " fill="#FEFFDD" style="stroke:#181818;stroke-width:0.5;"/><text fill="#000000" font-family="sans-serif" font-size="13" lengthAdjust="spacing" textLength="149" x="1346.63" y="177.8284">Point d'entr&#233;e principal.</text><text fill="#000000" font-family="sans-serif" font-size="13" lengthAdjust="spacing" textLength="196" x="1346.63" y="193.1389">Orchestre tous les composants</text><text fill="#000000" font-family="sans-serif" font-size="13" lengthAdjust="spacing" textLength="154" x="1346.63" y="208.4495">et g&#232;re le cycle de vie de</text><text fill="#000000" font-family="sans-serif" font-size="13" lengthAdjust="spacing" textLength="195" x="1346.63" y="223.76">l'application (start/stop/reset).</text></g><g id="elem_GMN30"><path d="M1100.13,1190.04 L1100.13,1276.5927 L1352.13,1276.5927 L1352.13,1200.04 L1342.13,1190.04 L1100.13,1190.04 " fill="#FEFFDD" style="stroke:#181818;stroke-width:0.5;"/><path d="M1342.13,1190.04 L1342.13,1200.04 L1352.13,1200.04 L1342.13,1190.04 " fill="#FEFFDD" style="stroke:#181818;stroke-width:1.0;"/><text fill="#000000" font-family="sans-serif" font-size="13" lengthAdjust="spacing" textLength="206" x="1106.13" y="1207.6084">G&#232;re la logique du cycle d'apn&#233;e:</text><text fill="#000000" font-family="sans-serif" font-size="13" lengthAdjust="spacing" textLength="130" x="1106.13" y="1222.9189">- Timing des phases</text><text fill="#000000" font-family="sans-serif" font-size="13" lengthAdjust="spacing" textLength="118" x="1106.13" y="1238.2295">- Rollover de cycle</text><text fill="#000000" font-family="sans-serif" font-size="13" lengthAdjust="spacing" textLength="113" x="1106.13" y="1253.54">- Nudge temporel</text><text fill="#000000" font-family="sans-serif" font-size="13" lengthAdjust="spacing" textLength="231" x="1106.13" y="1268.8505">- Calcul pourcentage de progression</text></g><g id="elem_GMN33"><path d="M998.63,644.84 L998.63,684.11 L964.46,688.11 L998.63,692.11 L998.63,731.3927 A0,0 0 0 0 998.63,731.3927 L1257.63,731.3927 A0,0 0 0 0 1257.63,731.3927 L1257.63,654.84 L1247.63,644.84 L998.63,644.84 A0,0 0 0 0 998.63,644.84 " fill="#FEFFDD" style="stroke:#181818;stroke-width:0.5;"/><path d="M1247.63,644.84 L1247.63,654.84 L1257.63,654.84 L1247.63,644.84 " fill="#FEFFDD" style="stroke:#181818;stroke-width:0.5;"/><text fill="#000000" font-family="sans-serif" font-size="13" lengthAdjust="spacing" textLength="214" x="1004.63" y="662.4084">Service audio avec Web Audio API:</text><text fill="#000000" font-family="sans-serif" font-size="13" lengthAdjust="spacing" textLength="172" x="1004.63" y="677.7189">- Beeps de synchronisation</text><text fill="#000000" font-family="sans-serif" font-size="13" lengthAdjust="spacing" textLength="181" x="1004.63" y="693.0295">- Sons de tingle (bruit blanc)</text><text fill="#000000" font-family="sans-serif" font-size="13" lengthAdjust="spacing" textLength="142" x="1004.63" y="708.34">- Scheduler lookahead</text><text fill="#000000" font-family="sans-serif" font-size="13" lengthAdjust="spacing" textLength="238" x="1004.63" y="723.6505">- Synchronisation audio/performance</text></g><!--reverse link App to CycleEngine--><g id="link_App_CycleEngine"><path codeLine="175" d="M1273.971,395.9671 C1340.581,556.8271 1393.86,775.25 1275.13,930.46 C1195.67,1034.33 1103.32,940.24 991.13,1007.46 C982.04,1012.91 973.1,1018.85 964.32,1025.18 " fill="none" id="App-backto-CycleEngine" style="stroke:#5F93CF;stroke-width:1.0;"/><polygon fill="#5F93CF" points="1269.38,384.88,1267.9798,391.9539,1273.971,395.9671,1275.3712,388.8932,1269.38,384.88" style="stroke:#5F93CF;stroke-width:1.0;"/><text fill="#000000" font-family="sans-serif" font-size="13" lengthAdjust="spacing" textLength="8" x="972.3015" y="1013.6576">1</text></g><!--reverse link App to AudioService--><g id="link_App_AudioService"><path codeLine="176" d="M1035.1141,363.9139 C1010.0741,394.0039 991.03,416.89 964.44,448.84 " fill="none" id="App-backto-AudioService" style="stroke:#5F93CF;stroke-width:1.0;"/><polygon fill="#5F93CF" points="1042.79,354.69,1035.8774,356.7433,1035.1141,363.9139,1042.0267,361.8606,1042.79,354.69" style="stroke:#5F93CF;stroke-width:1.0;"/><text fill="#000000" font-family="sans-serif" font-size="13" lengthAdjust="spacing" textLength="8" x="972.3427" y="436.7751">1</text></g><!--reverse link App to BarRenderer--><g id="link_App_BarRenderer"><path codeLine="177" d="M1312.3935,378.348 C1323.0435,393.788 1326.56,399.49 1336.13,414.76 C1366.02,462.43 1395.38,517.06 1419.59,564.82 " fill="none" id="App-backto-BarRenderer" style="stroke:#5F93CF;stroke-width:1.0;"/><polygon fill="#5F93CF" points="1305.58,368.47,1305.6941,375.6802,1312.3935,378.348,1312.2795,371.1378,1305.58,368.47" style="stroke:#5F93CF;stroke-width:1.0;"/><text fill="#000000" font-family="sans-serif" font-size="13" lengthAdjust="spacing" textLength="8" x="1407.779" y="554.4278">1</text></g><!--reverse link App to CountdownController--><g id="link_App_CountdownController"><path codeLine="178" d="M1030.9953,224.8328 C894.5553,256.7428 693.28,320.58 551.13,445.76 C496.91,493.51 460.08,568.72 438.97,622.48 " fill="none" id="App-backto-CountdownController" style="stroke:#5F93CF;stroke-width:1.0;"/><polygon fill="#5F93CF" points="1042.68,222.1,1035.9267,219.5715,1030.9953,224.8328,1037.7486,227.3613,1042.68,222.1" style="stroke:#5F93CF;stroke-width:1.0;"/><text fill="#000000" font-family="sans-serif" font-size="13" lengthAdjust="spacing" textLength="8" x="432.9213" y="612.0667">1</text></g><!--reverse link App to UIController--><g id="link_App_UIController"><path codeLine="179" d="M1315.0797,379.8934 C1320.7997,384.2334 1317.12,381.04 1323.13,384.76 C1434.37,453.66 1521.66,350.3 1611.13,445.76 C1753.26,597.41 1767.6,842.9 1755.33,1019.31 " fill="none" id="App-backto-UIController" style="stroke:#5F93CF;stroke-width:1.0;"/><polygon fill="#5F93CF" points="1305.52,372.64,1307.8821,379.4533,1315.0797,379.8934,1312.7177,373.0801,1305.52,372.64" style="stroke:#5F93CF;stroke-width:1.0;"/><text fill="#000000" font-family="sans-serif" font-size="13" lengthAdjust="spacing" textLength="8" x="1748.2716" y="1008.9236">1</text></g><!--link App to Helpers--><g id="link_App_Helpers"><path codeLine="182" d="M1042.74,214.13 C817.98,246.62 375.01,324.71 283.13,445.76 C6,810.92 208.43,1086.33 475.13,1459.18 C532.46,1539.32 617.7999,1604.0693 685.1299,1647.8493 " fill="none" id="App-to-Helpers" style="stroke:#5F93CF;stroke-width:1.0;stroke-dasharray:7.0,7.0;"/><polygon fill="#5F93CF" points="690.16,1651.12,684.7953,1642.8605,685.9682,1648.3944,680.4343,1649.5673,690.16,1651.12" style="stroke:#5F93CF;stroke-width:1.0;"/><text fill="#000000" font-family="sans-serif" font-size="13" lengthAdjust="spacing" textLength="29" x="184.74" y="974.0284">uses</text></g><!--link CycleEngine to AppConfig--><g id="link_CycleEngine_AppConfig"><path codeLine="183" d="M964.59,1438.09 C973.36,1445.45 982.22,1452.51 991.13,1459.18 C1089.48,1532.72 1207.7559,1592.5259 1305.2459,1635.7959 " fill="none" id="CycleEngine-to-AppConfig" style="stroke:#5F93CF;stroke-width:1.0;stroke-dasharray:7.0,7.0;"/><polygon fill="#5F93CF" points="1310.73,1638.23,1304.1266,1630.9228,1306.1599,1636.2016,1300.8811,1638.235,1310.73,1638.23" style="stroke:#5F93CF;stroke-width:1.0;"/><text fill="#000000" font-family="sans-serif" font-size="13" lengthAdjust="spacing" textLength="29" x="1052.37" y="1502.7484">uses</text></g><!--link CycleEngine to Helpers--><g id="link_CycleEngine_Helpers"><path codeLine="184" d="M779.13,1459.36 C779.13,1531.11 779.13,1598.06 779.13,1645.32 " fill="none" id="CycleEngine-to-Helpers" style="stroke:#5F93CF;stroke-width:1.0;stroke-dasharray:7.0,7.0;"/><polygon fill="#5F93CF" points="779.13,1651.32,783.13,1642.32,779.13,1646.32,775.13,1642.32,779.13,1651.32" style="stroke:#5F93CF;stroke-width:1.0;"/><text fill="#000000" font-family="sans-serif" font-size="13" lengthAdjust="spacing" textLength="29" x="780.13" y="1502.7484">uses</text></g><!--link AudioService to AppConfig--><g id="link_AudioService_AppConfig"><path codeLine="185" d="M964.4,921.44 C969.89,924.65 975.47,927.67 981.13,930.46 C1062.67,970.68 1323.63,897.42 1389.13,960.46 C1469.49,1037.79 1432.57,1348.37 1445.13,1459.18 C1447.95,1484.01 1450.2586,1504.2988 1453.1986,1530.0188 " fill="none" id="AudioService-to-AppConfig" style="stroke:#5F93CF;stroke-width:1.0;stroke-dasharray:7.0,7.0;"/><polygon fill="#5F93CF" points="1453.88,1535.98,1456.832,1526.584,1453.3122,1531.0123,1448.8838,1527.4925,1453.88,1535.98" style="stroke:#5F93CF;stroke-width:1.0;"/><text fill="#000000" font-family="sans-serif" font-size="13" lengthAdjust="spacing" textLength="29" x="1446.13" y="1238.3884">uses</text></g><!--link UIController to Helpers--><g id="link_UIController_Helpers"><path codeLine="186" d="M1589.23,1437.49 C1580.55,1445.31 1571.51,1452.6 1562.13,1459.18 C1460.67,1530.34 1412.64,1499.9 1294.13,1536.18 C1164.79,1575.78 1023.864,1621.8682 920.234,1656.2982 " fill="none" id="UIController-to-Helpers" style="stroke:#5F93CF;stroke-width:1.0;stroke-dasharray:7.0,7.0;"/><polygon fill="#5F93CF" points="914.54,1658.19,924.3421,1659.1483,919.285,1656.6135,921.8198,1651.5564,914.54,1658.19" style="stroke:#5F93CF;stroke-width:1.0;"/><text fill="#000000" font-family="sans-serif" font-size="13" lengthAdjust="spacing" textLength="29" x="1507.68" y="1502.7484">uses</text></g><!--link UIController to AppConfig--><g id="link_UIController_AppConfig"><path codeLine="187" d="M1682.22,1447.19 C1674.82,1467.67 1666.19,1487.68 1656.13,1506.18 C1649.99,1517.47 1646.4571,1523.6743 1638.9771,1534.5643 " fill="none" id="UIController-to-AppConfig" style="stroke:#5F93CF;stroke-width:1.0;stroke-dasharray:7.0,7.0;"/><polygon fill="#5F93CF" points="1635.58,1539.51,1643.9727,1534.3561,1638.4109,1535.3886,1637.3784,1529.8267,1635.58,1539.51" style="stroke:#5F93CF;stroke-width:1.0;"/><text fill="#000000" font-family="sans-serif" font-size="13" lengthAdjust="spacing" textLength="29" x="1664.04" y="1502.7484">uses</text></g><!--link AudioService to Helpers--><g id="link_AudioService_Helpers"><path codeLine="188" d="M584.15,930.73 C577.91,940.67 571.88,950.6 566.13,960.46 C454.43,1152.13 462.48,1253.3 545.13,1459.18 C577.09,1538.78 644.0041,1603.3778 699.6441,1647.3878 " fill="none" id="AudioService-to-Helpers" style="stroke:#5F93CF;stroke-width:1.0;stroke-dasharray:7.0,7.0;"/><polygon fill="#5F93CF" points="704.35,1651.11,699.7727,1642.3894,700.4285,1648.0081,694.8097,1648.6639,704.35,1651.11" style="stroke:#5F93CF;stroke-width:1.0;"/><text fill="#000000" font-family="sans-serif" font-size="13" lengthAdjust="spacing" textLength="29" x="546.13" y="1238.3884">uses</text></g><!--link BarRenderer to AppConfig--><g id="link_BarRenderer_AppConfig"><path codeLine="189" d="M1484.14,811.32 C1486.16,857.98 1488.15,911.67 1489.13,960.46 C1493.14,1158.03 1486.864,1379.1446 1480.984,1529.7746 " fill="none" id="BarRenderer-to-AppConfig" style="stroke:#5F93CF;stroke-width:1.0;stroke-dasharray:7.0,7.0;"/><polygon fill="#5F93CF" points="1480.75,1535.77,1485.098,1526.9329,1480.945,1530.7738,1477.1041,1526.6208,1480.75,1535.77" style="stroke:#5F93CF;stroke-width:1.0;"/><text fill="#000000" font-family="sans-serif" font-size="13" lengthAdjust="spacing" textLength="29" x="1491.37" y="1238.3884">uses</text></g><!--link BarRenderer to Helpers--><g id="link_BarRenderer_Helpers"><path codeLine="190" d="M1471.17,811.47 C1461.09,870.72 1438.52,937.51 1389.13,977.46 C1330.68,1024.74 1107,956.05 1052.13,1007.46 C903.89,1146.37 1065.6,1273.96 982.13,1459.18 C948.14,1534.62 888.588,1601.3934 841.538,1647.2234 " fill="none" id="BarRenderer-to-Helpers" style="stroke:#5F93CF;stroke-width:1.0;stroke-dasharray:7.0,7.0;"/><polygon fill="#5F93CF" points="837.24,1651.41,846.478,1647.9955,840.8217,1647.9212,840.896,1642.2648,837.24,1651.41" style="stroke:#5F93CF;stroke-width:1.0;"/><text fill="#000000" font-family="sans-serif" font-size="13" lengthAdjust="spacing" textLength="29" x="1053.13" y="1238.3884">uses</text></g><!--link BarRenderer to CycleEngine--><g id="link_BarRenderer_CycleEngine"><path codeLine="191" d="M1445.59,811.19 C1423.03,871.31 1386.45,938.99 1329.13,977.46 C1266.53,1019.49 1058.98,974.55 991.13,1007.46 C982.08,1011.85 978.3044,1013.6142 969.6544,1019.0342 " fill="none" id="BarRenderer-to-CycleEngine" style="stroke:#5F93CF;stroke-width:1.0;stroke-dasharray:7.0,7.0;"/><polygon fill="#5F93CF" points="964.57,1022.22,974.3204,1020.8309,968.807,1019.5652,970.0727,1014.0517,964.57,1022.22" style="stroke:#5F93CF;stroke-width:1.0;"/><text fill="#000000" font-family="sans-serif" font-size="13" lengthAdjust="spacing" textLength="29" x="1350.73" y="974.0284">uses</text></g><!--link AudioService to CycleEngine--><g id="link_AudioService_CycleEngine"><path codeLine="192" d="M771.92,930.93 C772.53,956.27 772.9969,975.9617 773.5969,1001.1117 " fill="none" id="AudioService-to-CycleEngine" style="stroke:#5F93CF;stroke-width:1.0;stroke-dasharray:7.0,7.0;"/><polygon fill="#5F93CF" points="773.74,1007.11,777.5242,998.0172,773.6207,1002.1114,769.5265,998.208,773.74,1007.11" style="stroke:#5F93CF;stroke-width:1.0;"/><text fill="#000000" font-family="sans-serif" font-size="13" lengthAdjust="spacing" textLength="29" x="774.02" y="974.0284">uses</text></g><!--link CountdownController to CycleEngine--><g id="link_CountdownController_CycleEngine"><path codeLine="193" d="M449.89,753.8 C475.67,803.24 513.43,872.51 551.13,930.46 C567.61,955.78 582.0359,976.8724 600.3459,1002.4324 " fill="none" id="CountdownController-to-CycleEngine" style="stroke:#5F93CF;stroke-width:1.0;stroke-dasharray:7.0,7.0;"/><polygon fill="#5F93CF" points="603.84,1007.31,601.8506,997.6642,600.9282,1003.2453,595.3471,1002.323,603.84,1007.31" style="stroke:#5F93CF;stroke-width:1.0;"/><text fill="#000000" font-family="sans-serif" font-size="13" lengthAdjust="spacing" textLength="29" x="580.8" y="974.0284">uses</text></g><!--link CycleEngine to GMN30--><g id="link_CycleEngine_GMN30"><path d="M911.64,1007.21 C953.95,964.27 1003.44,940.52 1055.63,968.96 C1141.95,1016 1191.18,1127.59 1212.8,1189.69 " fill="none" id="CycleEngine-GMN30" style="stroke:#5F93CF;stroke-width:1.0;stroke-dasharray:7.0,7.0;"/></g><!--SRC=[XLZTTk8s4BxdATJsOhrDmfBDRdlAsUOS1vmDRG0NIBlR6uwmPQADaLn99jd-l4_x7FjY7SasMBOWkKY8lcz68-cRqOYlOf9GHj3O7qsMW-djT8Q-UPlyS14bdQzAQ1uCffEXF_jOuUGxaYIuqv4Fb6LOu0sAKYobhvIWgroHKSJPdFv9KAz9GNzr4FnSuUXXBNZEuW5FkMZEK72uY8aey7rm1lA5u8yjv9zEfvZ3px81PmbTetVlfCAAHfUNvSGdOt_sSp1RXeD57x5yio82_OY-xnNWVE7F5XSDyFNR4XpS1CFbQB88Ph_wjylntC6vdKv_zcy2VxY45TNmNlUyP8mXtBb_7Im-jYYzyu8ocOxcmN9uD_CNe-caGRieE5T142wlPy4lovlVQ-YRD-LA_70I-4ipcML-RkF-XwRx4Wy-X0xhEjWo_QvNmfExuVl0PTqzjmWj3xtkctfqm-3QlxjTj2Biri9mSzvqtzPdSfDwtTVbR7V3qNHfpduvlRwU1srcx_LUNJSapOYG3cq1liacnihRdg8DPV0BFxsiN1MiX8iDLdCIUHi9a8ISOUi2sl3OmwU8xIrsimu-Hoa9s5hdOp7TsH9dZE2njDoVBSbJrXh3aQ9Ruck-4mcUiiPuHbWCSLacw6_uaAOsesPgu_TOXWMbZrQSfmIpoX8WCaqIILGhqaYlSyHYycG3PyKEkPPyqbxnIMt1RYXesvYfXxc0G-Mi2HwE-UIPaC72n077VOgedEMCmPx04MyvZNSKYES88UAR3Efgg8COIu_nnv28v1IPgUSA2wN_RmYDvV6QU3595Uo1vKuGc37ShyYpKCwCs6OyJVaMfDmsjOVCrYnu62alAm9qwDVFOyhdH6nfj1Tmf63B30BrMf4dPIjeWwKYuZsch8_qxmcFYSrWd4fobIUb5_YKD6KeetiIB-Y62BTCzrjeN6XcGv8GlmfJp9ZsmzOfESxf8xxwH29bYM1th7Okd4Iv48IfbiUJPyCg7HCcSq7qWOI2Rs0ttfN-BqjfVMRHb1b77WH1PBuXfoZ3kIHnk3kj_M5ki7W8OJ43k9nLp1_P5I6Pz8YfF63eCC7n5hE837OHUurCijY7LPcp3MZSrbPxHEePvlfGynJ4MGL6fGuqO7YLalYQDKnujhUmeMfuGQC7jpD7vXG7tKoCAaaBr4z0knEpsCAjnLwN-JUMUzGI510cfRYJ8kYQmgiwckBFSvue7QolF5MVeK3tPr8eLxFseZf5SNb6S1jLnhkClS9Y1lMR2CYOAc4JcgP1saStY_5ja98DI7UNg-A1Y6FOnJ6mvmOb5ugIMxmY1wOrQZY2Oo6Ws1_pG9dCw7pdnaKnSbv0UN9xK0UXCaVpBCQAZCr2fKiDmknpLJrFaKtPzm1LJkfgAQ0yrqx67Jb8wld03irhAFSqjXCGzloUFthIePYxKIkmui86UOqOv4OHYVbO3qTVuCzHJDa0qfoaK5iBLl7PeXazN2bM4AvofJXh47Xs33S9VepmATzaSoFBOomJhdxbF4kwVeoFSNAwu6l8t6ESrRvO7TY-ikSw9DGYacOlTbRj28xBHifhT1WQ2ipP-RADmaQMbnwaLwkC4oX4FCj8x0Pdn31Sq4-x4t3ZORLKJxSK5ceLTcreNSRAxFG0oZZqY7SZs_6AiZZOmev9xnwp62GkMma03yzzGffSwjSRzwecwThRjpgY4bbXQ59gTRUgFrNUzrqbe2Jbj6ybO3aiN6q73EDa53_N4EcUid4jKHcQrg7LqjSR2gUCAAEgKKWuCxeQm7wkIGi3OJaHa-BrXaTZbpkGPmr-ksCzM-eaNl12H0teO7y2JHvlEOzqvvFUrW5Gmmiq8wcvM2M2bbKt1bnI_Nz7I-JRipFqzVdNbZJguvOowa1T6fOZXohgkAKBY6xuvJ_zUjEnIqFiTYztxze-WgEKdVg3KyFxBrKE41hsLiFlT61T5muFBRpbeJL7mqEzXN4wQ1AUiQyl-L083exhtZv0xJ2k219qVQyGJtJ08BIGKwPG_0AAZ_Zo7q6Pe2oY6Kwx04u5jB1I2O8KpoLAYIprXg5K0KuKMd_v5-2K5Cz5hSWjrNy0JL_WB4jfPCIAF9DRhtGIlJ9fyxBRWVKZ7LGpDBkklI-cm2ZbQ_f73jxpQZQOWK7KVM2T8NZ7G3M2kMNnb91cj7fgccJHLcRKDCz84LYC8AaP6k0qobEKyLn4i1juRLQJ2Rw6SANEhqFXDgfjTMAc5YEy9H7wZQmA5lB3KH6jUVle6VGhwbvmHgNPA0FEo-nMfhD6tahaLA4LTF_Hou9GlIrWK_W3leVBiXYtdHKnl0BTcM-682VtY_WV]--></g></svg>